<svg width="572" height="210" viewBox="0 0 572 210" fill="none" xmlns="http://www.w3.org/2000/svg">
<path d="M22.994 54.288C21.962 54.288 21.068 54.036 20.312 53.532C19.568 53.016 18.992 52.284 18.584 51.336C18.188 50.376 17.99 49.23 17.99 47.898C17.99 46.554 18.182 45.402 18.566 44.442C18.962 43.47 19.52 42.732 20.24 42.228C20.972 41.712 21.836 41.454 22.832 41.454C23.852 41.454 24.722 41.682 25.442 42.138C26.174 42.582 26.744 43.212 27.152 44.028L26.072 44.658C25.688 43.95 25.238 43.446 24.722 43.146C24.206 42.834 23.576 42.678 22.832 42.678C21.764 42.678 20.924 43.14 20.312 44.064C19.712 44.976 19.412 46.248 19.412 47.88C19.412 48.948 19.55 49.872 19.826 50.652C20.102 51.432 20.498 52.032 21.014 52.452C21.53 52.86 22.13 53.064 22.814 53.064C23.666 53.064 24.326 52.878 24.794 52.506C25.274 52.122 25.718 51.528 26.126 50.724L27.26 51.408C26.828 52.344 26.252 53.058 25.532 53.55C24.824 54.042 23.978 54.288 22.994 54.288ZM34.1624 54.288C33.1424 54.288 32.2304 54.018 31.4264 53.478C30.6344 52.926 30.0104 52.164 29.5544 51.192C29.1104 50.22 28.8884 49.116 28.8884 47.88C28.8884 46.644 29.1104 45.54 29.5544 44.568C30.0104 43.584 30.6344 42.822 31.4264 42.282C32.2304 41.73 33.1424 41.454 34.1624 41.454C35.1824 41.454 36.0884 41.73 36.8804 42.282C37.6844 42.822 38.3084 43.584 38.7524 44.568C39.2084 45.54 39.4364 46.65 39.4364 47.898C39.4364 49.134 39.2084 50.238 38.7524 51.21C38.3084 52.17 37.6844 52.926 36.8804 53.478C36.0884 54.018 35.1824 54.288 34.1624 54.288ZM34.1624 53.046C34.9064 53.046 35.5724 52.83 36.1604 52.398C36.7604 51.954 37.2284 51.342 37.5644 50.562C37.9004 49.77 38.0684 48.876 38.0684 47.88C38.0684 46.884 37.9004 45.99 37.5644 45.198C37.2284 44.406 36.7604 43.788 36.1604 43.344C35.5724 42.9 34.9064 42.678 34.1624 42.678C33.4184 42.678 32.7464 42.9 32.1464 43.344C31.5584 43.788 31.0964 44.406 30.7604 45.198C30.4244 45.99 30.2564 46.884 30.2564 47.88C30.2564 48.876 30.4244 49.77 30.7604 50.562C31.0964 51.342 31.5584 51.954 32.1464 52.398C32.7464 52.83 33.4184 53.046 34.1624 53.046ZM46.6956 54.288C45.6756 54.288 44.7636 54.018 43.9596 53.478C43.1676 52.926 42.5436 52.164 42.0876 51.192C41.6436 50.22 41.4216 49.116 41.4216 47.88C41.4216 46.644 41.6436 45.54 42.0876 44.568C42.5436 43.584 43.1676 42.822 43.9596 42.282C44.7636 41.73 45.6756 41.454 46.6956 41.454C47.7156 41.454 48.6216 41.73 49.4136 42.282C50.2176 42.822 50.8416 43.584 51.2856 44.568C51.7416 45.54 51.9696 46.65 51.9696 47.898C51.9696 49.134 51.7416 50.238 51.2856 51.21C50.8416 52.17 50.2176 52.926 49.4136 53.478C48.6216 54.018 47.7156 54.288 46.6956 54.288ZM46.6956 53.046C47.4396 53.046 48.1056 52.83 48.6936 52.398C49.2936 51.954 49.7616 51.342 50.0976 50.562C50.4336 49.77 50.6016 48.876 50.6016 47.88C50.6016 46.884 50.4336 45.99 50.0976 45.198C49.7616 44.406 49.2936 43.788 48.6936 43.344C48.1056 42.9 47.4396 42.678 46.6956 42.678C45.9516 42.678 45.2796 42.9 44.6796 43.344C44.0916 43.788 43.6296 44.406 43.2936 45.198C42.9576 45.99 42.7896 46.884 42.7896 47.88C42.7896 48.876 42.9576 49.77 43.2936 50.562C43.6296 51.342 44.0916 51.954 44.6796 52.398C45.2796 52.83 45.9516 53.046 46.6956 53.046ZM54.4048 41.724H58.5088C59.6128 41.724 60.4948 42.06 61.1548 42.732C61.8148 43.404 62.1448 44.334 62.1448 45.522C62.1448 46.698 61.7968 47.622 61.1008 48.294C60.4168 48.966 59.5048 49.302 58.3648 49.302H55.7548V54H54.4048V41.724ZM58.3288 48.186C59.1328 48.186 59.7448 47.964 60.1648 47.52C60.5848 47.064 60.7948 46.398 60.7948 45.522C60.7948 44.646 60.5848 43.98 60.1648 43.524C59.7448 43.068 59.1328 42.84 58.3288 42.84H55.7548V48.186H58.3288ZM64.0197 54V41.724H70.8957V42.858H65.3697V47.142H69.6897V48.24H65.3697V52.884H70.9497V54H64.0197ZM79.9664 54L76.8524 48.582H74.4224V54H73.0724V41.724H77.1764C77.9204 41.724 78.5744 41.868 79.1384 42.156C79.7024 42.444 80.1344 42.852 80.4344 43.38C80.7344 43.896 80.8844 44.49 80.8844 45.162C80.8844 45.978 80.6384 46.68 80.1464 47.268C79.6544 47.844 79.0004 48.234 78.1844 48.438L81.3884 54H79.9664ZM74.4224 47.466H76.9964C77.7884 47.466 78.3944 47.256 78.8144 46.836C79.2464 46.416 79.4624 45.858 79.4624 45.162C79.4624 44.466 79.2464 43.908 78.8144 43.488C78.3944 43.056 77.7884 42.84 76.9964 42.84H74.4224V47.466ZM91.1458 54L89.8858 50.562H84.7918L83.6578 54H82.3078L86.6638 41.724H87.9238L92.4058 54H91.1458ZM85.2058 49.446H89.4718L87.2758 43.488L85.2058 49.446ZM95.6888 54V42.84H91.8188V41.724H100.891V42.84H97.0208V54H95.6888ZM102.154 54V52.812H103.342V42.912H102.154V41.724H105.88V42.912H104.692V52.812H105.88V54H102.154ZM113.141 54.288C112.121 54.288 111.209 54.018 110.405 53.478C109.613 52.926 108.989 52.164 108.533 51.192C108.089 50.22 107.867 49.116 107.867 47.88C107.867 46.644 108.089 45.54 108.533 44.568C108.989 43.584 109.613 42.822 110.405 42.282C111.209 41.73 112.121 41.454 113.141 41.454C114.161 41.454 115.067 41.73 115.859 42.282C116.663 42.822 117.287 43.584 117.731 44.568C118.187 45.54 118.415 46.65 118.415 47.898C118.415 49.134 118.187 50.238 117.731 51.21C117.287 52.17 116.663 52.926 115.859 53.478C115.067 54.018 114.161 54.288 113.141 54.288ZM113.141 53.046C113.885 53.046 114.551 52.83 115.139 52.398C115.739 51.954 116.207 51.342 116.543 50.562C116.879 49.77 117.047 48.876 117.047 47.88C117.047 46.884 116.879 45.99 116.543 45.198C116.207 44.406 115.739 43.788 115.139 43.344C114.551 42.9 113.885 42.678 113.141 42.678C112.397 42.678 111.725 42.9 111.125 43.344C110.537 43.788 110.075 44.406 109.739 45.198C109.403 45.99 109.235 46.884 109.235 47.88C109.235 48.876 109.403 49.77 109.739 50.562C110.075 51.342 110.537 51.954 111.125 52.398C111.725 52.83 112.397 53.046 113.141 53.046ZM120.85 54V41.724H122.29L128.536 51.966V41.724H129.886V54H128.446L122.2 43.794V54H120.85ZM148.98 41.724H150.258L146.982 54H145.578L143.022 44.136L140.394 54H139.008L135.732 41.724H137.118L139.746 52.056L142.482 41.724H143.58L146.334 52.146L148.98 41.724ZM151.636 54V52.812H152.824V42.912H151.636V41.724H155.362V42.912H154.174V52.812H155.362V54H151.636ZM160.499 54V42.84H156.629V41.724H165.701V42.84H161.831V54H160.499ZM167.415 54V41.724H168.765V47.034H175.245V41.724H176.595V54H175.245V48.15H168.765V54H167.415ZM187.067 54V41.724H188.417V52.884H193.943V54H187.067ZM195.627 54V41.724H202.503V42.858H196.977V47.142H201.297V48.24H196.977V52.884H202.557V54H195.627ZM212.312 54L211.052 50.562H205.958L204.824 54H203.474L207.83 41.724H209.09L213.572 54H212.312ZM206.372 49.446H210.638L208.442 43.488L206.372 49.446ZM215.227 41.724H218.269C219.529 41.724 220.615 41.97 221.527 42.462C222.439 42.942 223.135 43.644 223.615 44.568C224.095 45.492 224.335 46.596 224.335 47.88C224.335 49.8 223.801 51.3 222.733 52.38C221.665 53.46 220.177 54 218.269 54H215.227V41.724ZM218.233 52.776C219.697 52.776 220.843 52.374 221.671 51.57C222.499 50.766 222.913 49.536 222.913 47.88C222.913 46.212 222.499 44.976 221.671 44.172C220.843 43.368 219.697 42.966 218.233 42.966H216.577V52.776H218.233ZM226.308 54V52.812H227.496V42.912H226.308V41.724H230.034V42.912H228.846V52.812H230.034V54H226.308ZM232.471 54V41.724H233.911L240.157 51.966V41.724H241.507V54H240.067L233.821 43.794V54H232.471ZM248.475 54.288C247.443 54.288 246.549 54.036 245.793 53.532C245.049 53.016 244.473 52.284 244.065 51.336C243.669 50.376 243.471 49.23 243.471 47.898C243.471 46.554 243.669 45.402 244.065 44.442C244.473 43.47 245.049 42.732 245.793 42.228C246.549 41.712 247.443 41.454 248.475 41.454C249.423 41.454 250.239 41.67 250.923 42.102C251.619 42.522 252.213 43.146 252.705 43.974L251.643 44.73C250.887 43.362 249.831 42.678 248.475 42.678C247.347 42.678 246.465 43.14 245.829 44.064C245.205 44.976 244.893 46.248 244.893 47.88C244.893 49.5 245.211 50.772 245.847 51.696C246.483 52.608 247.359 53.064 248.475 53.064C249.099 53.064 249.657 52.914 250.149 52.614C250.653 52.314 251.049 51.87 251.337 51.282C251.625 50.694 251.769 49.974 251.769 49.122H248.871V48.006H253.101V49.122C253.101 50.238 252.903 51.186 252.507 51.966C252.111 52.734 251.559 53.316 250.851 53.712C250.155 54.096 249.363 54.288 248.475 54.288ZM273.375 41.724H274.887V54H273.555V44.19L269.451 54H268.191L264.267 44.226V54H262.917V41.724H264.573L268.875 52.488L273.375 41.724ZM277.752 54V41.724H284.628V42.858H279.102V47.142H283.422V48.24H279.102V52.884H284.682V54H277.752ZM289.523 54V42.84H285.653V41.724H294.725V42.84H290.855V54H289.523ZM302.435 54L301.175 50.562H296.081L294.947 54H293.597L297.953 41.724H299.213L303.695 54H302.435ZM296.495 49.446H300.761L298.565 43.488L296.495 49.446ZM305.332 54V41.724H306.682V52.884H312.208V54H305.332ZM327.462 47.394C328.17 47.574 328.716 47.922 329.1 48.438C329.484 48.954 329.676 49.632 329.676 50.472C329.676 51.564 329.346 52.428 328.686 53.064C328.026 53.688 327.12 54 325.968 54H321.504V41.724H325.554C326.646 41.724 327.504 42.012 328.128 42.588C328.752 43.152 329.064 43.908 329.064 44.856C329.064 45.468 328.926 45.996 328.65 46.44C328.374 46.872 327.978 47.19 327.462 47.394ZM322.854 46.962H325.716C327 46.962 327.642 46.26 327.642 44.856C327.642 44.22 327.456 43.728 327.084 43.38C326.712 43.032 326.196 42.858 325.536 42.858H322.854V46.962ZM325.788 52.884C326.556 52.884 327.156 52.668 327.588 52.236C328.032 51.804 328.254 51.216 328.254 50.472C328.254 49.728 328.032 49.146 327.588 48.726C327.156 48.294 326.556 48.078 325.788 48.078H322.854V52.884H325.788ZM339.472 54L338.212 50.562H333.118L331.984 54H330.634L334.99 41.724H336.25L340.732 54H339.472ZM333.532 49.446H337.798L335.602 43.488L333.532 49.446ZM342.387 54V41.724H343.827L350.073 51.966V41.724H351.423V54H349.983L343.737 43.794V54H342.387ZM354.305 41.724H357.347C358.607 41.724 359.693 41.97 360.605 42.462C361.517 42.942 362.213 43.644 362.693 44.568C363.173 45.492 363.413 46.596 363.413 47.88C363.413 49.8 362.879 51.3 361.811 52.38C360.743 53.46 359.255 54 357.347 54H354.305V41.724ZM357.311 52.776C358.775 52.776 359.921 52.374 360.749 51.57C361.577 50.766 361.991 49.536 361.991 47.88C361.991 46.212 361.577 44.976 360.749 44.172C359.921 43.368 358.775 42.966 357.311 42.966H355.655V52.776H357.311ZM369.922 54.288C369.022 54.288 368.146 54.066 367.294 53.622C366.442 53.166 365.734 52.554 365.17 51.786L366.268 50.814C366.7 51.498 367.252 52.044 367.924 52.452C368.596 52.848 369.322 53.046 370.102 53.046C370.954 53.046 371.602 52.86 372.046 52.488C372.49 52.104 372.712 51.588 372.712 50.94C372.712 50.232 372.472 49.692 371.992 49.32C371.524 48.936 370.774 48.6 369.742 48.312C367.15 47.676 365.854 46.5 365.854 44.784C365.854 43.716 366.202 42.894 366.898 42.318C367.594 41.742 368.56 41.454 369.796 41.454C370.696 41.454 371.5 41.622 372.208 41.958C372.928 42.294 373.57 42.81 374.134 43.506L373.072 44.406C372.64 43.818 372.166 43.386 371.65 43.11C371.134 42.822 370.516 42.678 369.796 42.678C369.04 42.678 368.422 42.858 367.942 43.218C367.462 43.566 367.222 44.046 367.222 44.658C367.222 45.282 367.444 45.78 367.888 46.152C368.332 46.512 369.082 46.818 370.138 47.07C371.386 47.406 372.352 47.868 373.036 48.456C373.732 49.044 374.08 49.872 374.08 50.94C374.08 51.6 373.912 52.182 373.576 52.686C373.24 53.19 372.754 53.586 372.118 53.874C371.494 54.15 370.762 54.288 369.922 54.288ZM22.976 93.288C21.464 93.288 20.33 92.88 19.574 92.064C18.818 91.236 18.44 90.03 18.44 88.446V80.724H19.79V88.446C19.79 90.858 20.852 92.064 22.976 92.064C23.936 92.064 24.692 91.752 25.244 91.128C25.808 90.504 26.09 89.61 26.09 88.446V80.724H27.44V88.446C27.44 90.006 27.044 91.206 26.252 92.046C25.472 92.874 24.38 93.288 22.976 93.288ZM30.3228 80.724H34.4268C35.5308 80.724 36.4128 81.06 37.0728 81.732C37.7328 82.404 38.0628 83.334 38.0628 84.522C38.0628 85.698 37.7148 86.622 37.0188 87.294C36.3348 87.966 35.4228 88.302 34.2828 88.302H31.6728V93H30.3228V80.724ZM34.2468 87.186C35.0508 87.186 35.6628 86.964 36.0828 86.52C36.5028 86.064 36.7128 85.398 36.7128 84.522C36.7128 83.646 36.5028 82.98 36.0828 82.524C35.6628 82.068 35.0508 81.84 34.2468 81.84H31.6728V87.186H34.2468ZM44.5096 93.288C43.4776 93.288 42.5836 93.036 41.8276 92.532C41.0836 92.016 40.5076 91.284 40.0996 90.336C39.7036 89.376 39.5056 88.23 39.5056 86.898C39.5056 85.554 39.6976 84.402 40.0816 83.442C40.4776 82.47 41.0356 81.732 41.7556 81.228C42.4876 80.712 43.3516 80.454 44.3476 80.454C45.3676 80.454 46.2376 80.682 46.9576 81.138C47.6896 81.582 48.2596 82.212 48.6676 83.028L47.5876 83.658C47.2036 82.95 46.7536 82.446 46.2376 82.146C45.7216 81.834 45.0916 81.678 44.3476 81.678C43.2796 81.678 42.4396 82.14 41.8276 83.064C41.2276 83.976 40.9276 85.248 40.9276 86.88C40.9276 87.948 41.0656 88.872 41.3416 89.652C41.6176 90.432 42.0136 91.032 42.5296 91.452C43.0456 91.86 43.6456 92.064 44.3296 92.064C45.1816 92.064 45.8416 91.878 46.3096 91.506C46.7896 91.122 47.2336 90.528 47.6416 89.724L48.7756 90.408C48.3436 91.344 47.7676 92.058 47.0476 92.55C46.3396 93.042 45.4936 93.288 44.5096 93.288ZM55.6781 93.288C54.6581 93.288 53.7461 93.018 52.9421 92.478C52.1501 91.926 51.5261 91.164 51.0701 90.192C50.6261 89.22 50.4041 88.116 50.4041 86.88C50.4041 85.644 50.6261 84.54 51.0701 83.568C51.5261 82.584 52.1501 81.822 52.9421 81.282C53.7461 80.73 54.6581 80.454 55.6781 80.454C56.6981 80.454 57.6041 80.73 58.3961 81.282C59.2001 81.822 59.8241 82.584 60.2681 83.568C60.7241 84.54 60.9521 85.65 60.9521 86.898C60.9521 88.134 60.7241 89.238 60.2681 90.21C59.8241 91.17 59.2001 91.926 58.3961 92.478C57.6041 93.018 56.6981 93.288 55.6781 93.288ZM55.6781 92.046C56.4221 92.046 57.0881 91.83 57.6761 91.398C58.2761 90.954 58.7441 90.342 59.0801 89.562C59.4161 88.77 59.5841 87.876 59.5841 86.88C59.5841 85.884 59.4161 84.99 59.0801 84.198C58.7441 83.406 58.2761 82.788 57.6761 82.344C57.0881 81.9 56.4221 81.678 55.6781 81.678C54.9341 81.678 54.2621 81.9 53.6621 82.344C53.0741 82.788 52.6121 83.406 52.2761 84.198C51.9401 84.99 51.7721 85.884 51.7721 86.88C51.7721 87.876 51.9401 88.77 52.2761 89.562C52.6121 90.342 53.0741 90.954 53.6621 91.398C54.2621 91.83 54.9341 92.046 55.6781 92.046ZM73.8453 80.724H75.3573V93H74.0253V83.19L69.9213 93H68.6613L64.7373 83.226V93H63.3873V80.724H65.0433L69.3453 91.488L73.8453 80.724ZM77.7908 93V91.812H78.9788V81.912H77.7908V80.724H81.5168V81.912H80.3288V91.812H81.5168V93H77.7908ZM83.9537 93V80.724H85.3937L91.6397 90.966V80.724H92.9897V93H91.5497L85.3037 82.794V93H83.9537ZM99.9576 93.288C98.9256 93.288 98.0316 93.036 97.2756 92.532C96.5316 92.016 95.9556 91.284 95.5476 90.336C95.1516 89.376 94.9536 88.23 94.9536 86.898C94.9536 85.554 95.1516 84.402 95.5476 83.442C95.9556 82.47 96.5316 81.732 97.2756 81.228C98.0316 80.712 98.9256 80.454 99.9576 80.454C100.906 80.454 101.722 80.67 102.406 81.102C103.102 81.522 103.696 82.146 104.188 82.974L103.126 83.73C102.37 82.362 101.314 81.678 99.9576 81.678C98.8296 81.678 97.9476 82.14 97.3116 83.064C96.6876 83.976 96.3756 85.248 96.3756 86.88C96.3756 88.5 96.6936 89.772 97.3296 90.696C97.9656 91.608 98.8416 92.064 99.9576 92.064C100.582 92.064 101.14 91.914 101.632 91.614C102.136 91.314 102.532 90.87 102.82 90.282C103.108 89.694 103.252 88.974 103.252 88.122H100.354V87.006H104.584V88.122C104.584 89.238 104.386 90.186 103.99 90.966C103.594 91.734 103.042 92.316 102.334 92.712C101.638 93.096 100.846 93.288 99.9576 93.288ZM115.349 93.288C114.317 93.288 113.423 93.036 112.667 92.532C111.923 92.016 111.347 91.284 110.939 90.336C110.543 89.376 110.345 88.23 110.345 86.898C110.345 85.554 110.537 84.402 110.921 83.442C111.317 82.47 111.875 81.732 112.595 81.228C113.327 80.712 114.191 80.454 115.187 80.454C116.207 80.454 117.077 80.682 117.797 81.138C118.529 81.582 119.099 82.212 119.507 83.028L118.427 83.658C118.043 82.95 117.593 82.446 117.077 82.146C116.561 81.834 115.931 81.678 115.187 81.678C114.119 81.678 113.279 82.14 112.667 83.064C112.067 83.976 111.767 85.248 111.767 86.88C111.767 87.948 111.905 88.872 112.181 89.652C112.457 90.432 112.853 91.032 113.369 91.452C113.885 91.86 114.485 92.064 115.169 92.064C116.021 92.064 116.681 91.878 117.149 91.506C117.629 91.122 118.073 90.528 118.481 89.724L119.615 90.408C119.183 91.344 118.607 92.058 117.887 92.55C117.179 93.042 116.333 93.288 115.349 93.288ZM126.518 93.288C125.498 93.288 124.586 93.018 123.782 92.478C122.99 91.926 122.366 91.164 121.91 90.192C121.466 89.22 121.244 88.116 121.244 86.88C121.244 85.644 121.466 84.54 121.91 83.568C122.366 82.584 122.99 81.822 123.782 81.282C124.586 80.73 125.498 80.454 126.518 80.454C127.538 80.454 128.444 80.73 129.236 81.282C130.04 81.822 130.664 82.584 131.108 83.568C131.564 84.54 131.792 85.65 131.792 86.898C131.792 88.134 131.564 89.238 131.108 90.21C130.664 91.17 130.04 91.926 129.236 92.478C128.444 93.018 127.538 93.288 126.518 93.288ZM126.518 92.046C127.262 92.046 127.928 91.83 128.516 91.398C129.116 90.954 129.584 90.342 129.92 89.562C130.256 88.77 130.424 87.876 130.424 86.88C130.424 85.884 130.256 84.99 129.92 84.198C129.584 83.406 129.116 82.788 128.516 82.344C127.928 81.9 127.262 81.678 126.518 81.678C125.774 81.678 125.102 81.9 124.502 82.344C123.914 82.788 123.452 83.406 123.116 84.198C122.78 84.99 122.612 85.884 122.612 86.88C122.612 87.876 122.78 88.77 123.116 89.562C123.452 90.342 123.914 90.954 124.502 91.398C125.102 91.83 125.774 92.046 126.518 92.046ZM134.227 93V80.724H135.667L141.913 90.966V80.724H143.263V93H141.823L135.577 82.794V93H134.227ZM150.699 93.288C149.667 93.288 148.773 93.036 148.017 92.532C147.273 92.016 146.697 91.284 146.289 90.336C145.893 89.376 145.695 88.23 145.695 86.898C145.695 85.554 145.887 84.402 146.271 83.442C146.667 82.47 147.225 81.732 147.945 81.228C148.677 80.712 149.541 80.454 150.537 80.454C151.557 80.454 152.427 80.682 153.147 81.138C153.879 81.582 154.449 82.212 154.857 83.028L153.777 83.658C153.393 82.95 152.943 82.446 152.427 82.146C151.911 81.834 151.281 81.678 150.537 81.678C149.469 81.678 148.629 82.14 148.017 83.064C147.417 83.976 147.117 85.248 147.117 86.88C147.117 87.948 147.255 88.872 147.531 89.652C147.807 90.432 148.203 91.032 148.719 91.452C149.235 91.86 149.835 92.064 150.519 92.064C151.371 92.064 152.031 91.878 152.499 91.506C152.979 91.122 153.423 90.528 153.831 89.724L154.965 90.408C154.533 91.344 153.957 92.058 153.237 92.55C152.529 93.042 151.683 93.288 150.699 93.288ZM157.026 93V80.724H163.902V81.858H158.376V86.142H162.696V87.24H158.376V91.884H163.956V93H157.026ZM172.972 93L169.858 87.582H167.428V93H166.078V80.724H170.182C170.926 80.724 171.58 80.868 172.144 81.156C172.708 81.444 173.14 81.852 173.44 82.38C173.74 82.896 173.89 83.49 173.89 84.162C173.89 84.978 173.644 85.68 173.152 86.268C172.66 86.844 172.006 87.234 171.19 87.438L174.394 93H172.972ZM167.428 86.466H170.002C170.794 86.466 171.4 86.256 171.82 85.836C172.252 85.416 172.468 84.858 172.468 84.162C172.468 83.466 172.252 82.908 171.82 82.488C171.4 82.056 170.794 81.84 170.002 81.84H167.428V86.466ZM179.238 93V81.84H175.368V80.724H184.44V81.84H180.57V93H179.238ZM189.694 93.288C188.794 93.288 187.918 93.066 187.066 92.622C186.214 92.166 185.506 91.554 184.942 90.786L186.04 89.814C186.472 90.498 187.024 91.044 187.696 91.452C188.368 91.848 189.094 92.046 189.874 92.046C190.726 92.046 191.374 91.86 191.818 91.488C192.262 91.104 192.484 90.588 192.484 89.94C192.484 89.232 192.244 88.692 191.764 88.32C191.296 87.936 190.546 87.6 189.514 87.312C186.922 86.676 185.626 85.5 185.626 83.784C185.626 82.716 185.974 81.894 186.67 81.318C187.366 80.742 188.332 80.454 189.568 80.454C190.468 80.454 191.272 80.622 191.98 80.958C192.7 81.294 193.342 81.81 193.906 82.506L192.844 83.406C192.412 82.818 191.938 82.386 191.422 82.11C190.906 81.822 190.288 81.678 189.568 81.678C188.812 81.678 188.194 81.858 187.714 82.218C187.234 82.566 186.994 83.046 186.994 83.658C186.994 84.282 187.216 84.78 187.66 85.152C188.104 85.512 188.854 85.818 189.91 86.07C191.158 86.406 192.124 86.868 192.808 87.456C193.504 88.044 193.852 88.872 193.852 89.94C193.852 90.6 193.684 91.182 193.348 91.686C193.012 92.19 192.526 92.586 191.89 92.874C191.266 93.15 190.534 93.288 189.694 93.288ZM21.14 132V120.84H17.27V119.724H26.342V120.84H22.472V132H21.14ZM27.6052 132V130.812H28.7932V120.912H27.6052V119.724H31.3312V120.912H30.1432V130.812H31.3312V132H27.6052ZM38.3221 132.288C37.2901 132.288 36.3961 132.036 35.6401 131.532C34.8961 131.016 34.3201 130.284 33.9121 129.336C33.5161 128.376 33.3181 127.23 33.3181 125.898C33.3181 124.554 33.5101 123.402 33.8941 122.442C34.2901 121.47 34.8481 120.732 35.5681 120.228C36.3001 119.712 37.1641 119.454 38.1601 119.454C39.1801 119.454 40.0501 119.682 40.7701 120.138C41.5021 120.582 42.0721 121.212 42.4801 122.028L41.4001 122.658C41.0161 121.95 40.5661 121.446 40.0501 121.146C39.5341 120.834 38.9041 120.678 38.1601 120.678C37.0921 120.678 36.2521 121.14 35.6401 122.064C35.0401 122.976 34.7401 124.248 34.7401 125.88C34.7401 126.948 34.8781 127.872 35.1541 128.652C35.4301 129.432 35.8261 130.032 36.3421 130.452C36.8581 130.86 37.4581 131.064 38.1421 131.064C38.9941 131.064 39.6541 130.878 40.1221 130.506C40.6021 130.122 41.0461 129.528 41.4541 128.724L42.5881 129.408C42.1561 130.344 41.5801 131.058 40.8601 131.55C40.1521 132.042 39.3061 132.288 38.3221 132.288ZM51.5066 132L47.2946 126.096L45.9986 127.626V132H44.6486V119.724H45.9986V125.934L51.1826 119.724H52.6766L48.0866 125.16L53.0366 132H51.5066ZM54.4572 132V119.724H61.3332V120.858H55.8072V125.142H60.1272V126.24H55.8072V130.884H61.3872V132H54.4572ZM66.2279 132V120.84H62.3579V119.724H71.4299V120.84H67.5599V132H66.2279ZM81.2369 132.288C80.3369 132.288 79.4609 132.066 78.6089 131.622C77.7569 131.166 77.0489 130.554 76.4849 129.786L77.5829 128.814C78.0149 129.498 78.5669 130.044 79.2389 130.452C79.9109 130.848 80.6369 131.046 81.4169 131.046C82.2689 131.046 82.9169 130.86 83.3609 130.488C83.8049 130.104 84.0269 129.588 84.0269 128.94C84.0269 128.232 83.7869 127.692 83.3069 127.32C82.8389 126.936 82.0889 126.6 81.0569 126.312C78.4649 125.676 77.1689 124.5 77.1689 122.784C77.1689 121.716 77.5169 120.894 78.2129 120.318C78.9089 119.742 79.8749 119.454 81.1109 119.454C82.0109 119.454 82.8149 119.622 83.5229 119.958C84.2429 120.294 84.8849 120.81 85.4489 121.506L84.3869 122.406C83.9549 121.818 83.4809 121.386 82.9649 121.11C82.4489 120.822 81.8309 120.678 81.1109 120.678C80.3549 120.678 79.7369 120.858 79.2569 121.218C78.7769 121.566 78.5369 122.046 78.5369 122.658C78.5369 123.282 78.7589 123.78 79.2029 124.152C79.6469 124.512 80.3969 124.818 81.4529 125.07C82.7009 125.406 83.6669 125.868 84.3509 126.456C85.0469 127.044 85.3949 127.872 85.3949 128.94C85.3949 129.6 85.2269 130.182 84.8909 130.686C84.5549 131.19 84.0689 131.586 83.4329 131.874C82.8089 132.15 82.0769 132.288 81.2369 132.288ZM87.6271 132V119.724H94.5031V120.858H88.9771V125.142H93.2971V126.24H88.9771V130.884H94.5571V132H87.6271ZM103.574 132L100.46 126.582H98.0298V132H96.6798V119.724H100.784C101.528 119.724 102.182 119.868 102.746 120.156C103.31 120.444 103.742 120.852 104.042 121.38C104.342 121.896 104.492 122.49 104.492 123.162C104.492 123.978 104.246 124.68 103.754 125.268C103.262 125.844 102.608 126.234 101.792 126.438L104.996 132H103.574ZM98.0298 125.466H100.604C101.396 125.466 102.002 125.256 102.422 124.836C102.854 124.416 103.07 123.858 103.07 123.162C103.07 122.466 102.854 121.908 102.422 121.488C102.002 121.056 101.396 120.84 100.604 120.84H98.0298V125.466ZM114.375 119.724H115.689L111.405 132H109.965L105.699 119.724H107.049L110.685 130.506L114.375 119.724ZM116.674 132V130.812H117.862V120.912H116.674V119.724H120.4V120.912H119.212V130.812H120.4V132H116.674ZM127.39 132.288C126.358 132.288 125.464 132.036 124.708 131.532C123.964 131.016 123.388 130.284 122.98 129.336C122.584 128.376 122.386 127.23 122.386 125.898C122.386 124.554 122.578 123.402 122.962 122.442C123.358 121.47 123.916 120.732 124.636 120.228C125.368 119.712 126.232 119.454 127.228 119.454C128.248 119.454 129.118 119.682 129.838 120.138C130.57 120.582 131.14 121.212 131.548 122.028L130.468 122.658C130.084 121.95 129.634 121.446 129.118 121.146C128.602 120.834 127.972 120.678 127.228 120.678C126.16 120.678 125.32 121.14 124.708 122.064C124.108 122.976 123.808 124.248 123.808 125.88C123.808 126.948 123.946 127.872 124.222 128.652C124.498 129.432 124.894 130.032 125.41 130.452C125.926 130.86 126.526 131.064 127.21 131.064C128.062 131.064 128.722 130.878 129.19 130.506C129.67 130.122 130.114 129.528 130.522 128.724L131.656 129.408C131.224 130.344 130.648 131.058 129.928 131.55C129.22 132.042 128.374 132.288 127.39 132.288ZM133.717 132V119.724H140.593V120.858H135.067V125.142H139.387V126.24H135.067V130.884H140.647V132H133.717ZM18.44 158.724H22.544C23.648 158.724 24.53 159.06 25.19 159.732C25.85 160.404 26.18 161.334 26.18 162.522C26.18 163.698 25.832 164.622 25.136 165.294C24.452 165.966 23.54 166.302 22.4 166.302H19.79V171H18.44V158.724ZM22.364 165.186C23.168 165.186 23.78 164.964 24.2 164.52C24.62 164.064 24.83 163.398 24.83 162.522C24.83 161.646 24.62 160.98 24.2 160.524C23.78 160.068 23.168 159.84 22.364 159.84H19.79V165.186H22.364ZM28.0548 171V158.724H29.4048V169.884H34.9308V171H28.0548ZM44.2474 171L42.9874 167.562H37.8934L36.7594 171H35.4094L39.7654 158.724H41.0254L45.5074 171H44.2474ZM38.3074 166.446H42.5734L40.3774 160.488L38.3074 166.446ZM52.742 158.724H53.984L50.006 165.978V171H48.674V165.924L44.732 158.724H46.082L49.43 164.844L52.742 158.724ZM55.1427 171V158.724H56.4927V169.884H62.0187V171H55.1427ZM63.2713 171V169.812H64.4593V159.912H63.2713V158.724H66.9973V159.912H65.8093V169.812H66.9973V171H63.2713ZM73.5201 171.288C72.6201 171.288 71.7441 171.066 70.8921 170.622C70.0401 170.166 69.3321 169.554 68.7681 168.786L69.8661 167.814C70.2981 168.498 70.8501 169.044 71.5221 169.452C72.1941 169.848 72.9201 170.046 73.7001 170.046C74.5521 170.046 75.2001 169.86 75.6441 169.488C76.0881 169.104 76.3101 168.588 76.3101 167.94C76.3101 167.232 76.0701 166.692 75.5901 166.32C75.1221 165.936 74.3721 165.6 73.3401 165.312C70.7481 164.676 69.4521 163.5 69.4521 161.784C69.4521 160.716 69.8001 159.894 70.4961 159.318C71.1921 158.742 72.1581 158.454 73.3941 158.454C74.2941 158.454 75.0981 158.622 75.8061 158.958C76.5261 159.294 77.1681 159.81 77.7321 160.506L76.6701 161.406C76.2381 160.818 75.7641 160.386 75.2481 160.11C74.7321 159.822 74.1141 159.678 73.3941 159.678C72.6381 159.678 72.0201 159.858 71.5401 160.218C71.0601 160.566 70.8201 161.046 70.8201 161.658C70.8201 162.282 71.0421 162.78 71.4861 163.152C71.9301 163.512 72.6801 163.818 73.7361 164.07C74.9841 164.406 75.9501 164.868 76.6341 165.456C77.3301 166.044 77.6781 166.872 77.6781 167.94C77.6781 168.6 77.5101 169.182 77.1741 169.686C76.8381 170.19 76.3521 170.586 75.7161 170.874C75.0921 171.15 74.3601 171.288 73.5201 171.288ZM82.6283 171V159.84H78.7583V158.724H87.8303V159.84H83.9603V171H82.6283ZM93.0846 171.288C92.1846 171.288 91.3086 171.066 90.4566 170.622C89.6046 170.166 88.8966 169.554 88.3326 168.786L89.4306 167.814C89.8626 168.498 90.4146 169.044 91.0866 169.452C91.7586 169.848 92.4846 170.046 93.2646 170.046C94.1166 170.046 94.7646 169.86 95.2086 169.488C95.6526 169.104 95.8746 168.588 95.8746 167.94C95.8746 167.232 95.6346 166.692 95.1546 166.32C94.6866 165.936 93.9366 165.6 92.9046 165.312C90.3126 164.676 89.0166 163.5 89.0166 161.784C89.0166 160.716 89.3646 159.894 90.0606 159.318C90.7566 158.742 91.7226 158.454 92.9586 158.454C93.8586 158.454 94.6626 158.622 95.3706 158.958C96.0906 159.294 96.7326 159.81 97.2966 160.506L96.2346 161.406C95.8026 160.818 95.3286 160.386 94.8126 160.11C94.2966 159.822 93.6786 159.678 92.9586 159.678C92.2026 159.678 91.5846 159.858 91.1046 160.218C90.6246 160.566 90.3846 161.046 90.3846 161.658C90.3846 162.282 90.6066 162.78 91.0506 163.152C91.4946 163.512 92.2446 163.818 93.3006 164.07C94.5486 164.406 95.5146 164.868 96.1986 165.456C96.8946 166.044 97.2426 166.872 97.2426 167.94C97.2426 168.6 97.0746 169.182 96.7386 169.686C96.4026 170.19 95.9166 170.586 95.2806 170.874C94.6566 171.15 93.9246 171.288 93.0846 171.288ZM111.115 171L109.855 167.562H104.761L103.627 171H102.277L106.633 158.724H107.893L112.375 171H111.115ZM105.175 166.446H109.441L107.245 160.488L105.175 166.446ZM114.03 171V158.724H115.47L121.716 168.966V158.724H123.066V171H121.626L115.38 160.794V171H114.03ZM125.948 158.724H128.99C130.25 158.724 131.336 158.97 132.248 159.462C133.16 159.942 133.856 160.644 134.336 161.568C134.816 162.492 135.056 163.596 135.056 164.88C135.056 166.8 134.522 168.3 133.454 169.38C132.386 170.46 130.898 171 128.99 171H125.948V158.724ZM128.954 169.776C130.418 169.776 131.564 169.374 132.392 168.57C133.22 167.766 133.634 166.536 133.634 164.88C133.634 163.212 133.22 161.976 132.392 161.172C131.564 160.368 130.418 159.966 128.954 159.966H127.298V169.776H128.954ZM149.101 171L147.841 167.562H142.747L141.613 171H140.263L144.619 158.724H145.879L150.361 171H149.101ZM143.161 166.446H147.427L145.231 160.488L143.161 166.446ZM151.998 171V158.724H153.348V169.884H158.874V171H151.998ZM166.517 164.394C167.225 164.574 167.771 164.922 168.155 165.438C168.539 165.954 168.731 166.632 168.731 167.472C168.731 168.564 168.401 169.428 167.741 170.064C167.081 170.688 166.175 171 165.023 171H160.559V158.724H164.609C165.701 158.724 166.559 159.012 167.183 159.588C167.807 160.152 168.119 160.908 168.119 161.856C168.119 162.468 167.981 162.996 167.705 163.44C167.429 163.872 167.033 164.19 166.517 164.394ZM161.909 163.962H164.771C166.055 163.962 166.697 163.26 166.697 161.856C166.697 161.22 166.511 160.728 166.139 160.38C165.767 160.032 165.251 159.858 164.591 159.858H161.909V163.962ZM164.843 169.884C165.611 169.884 166.211 169.668 166.643 169.236C167.087 168.804 167.309 168.216 167.309 167.472C167.309 166.728 167.087 166.146 166.643 165.726C166.211 165.294 165.611 165.078 164.843 165.078H161.909V169.884H164.843ZM175.449 171.288C173.937 171.288 172.803 170.88 172.047 170.064C171.291 169.236 170.913 168.03 170.913 166.446V158.724H172.263V166.446C172.263 168.858 173.325 170.064 175.449 170.064C176.409 170.064 177.165 169.752 177.717 169.128C178.281 168.504 178.563 167.61 178.563 166.446V158.724H179.913V166.446C179.913 168.006 179.517 169.206 178.725 170.046C177.945 170.874 176.853 171.288 175.449 171.288ZM193.253 158.724H194.765V171H193.433V161.19L189.329 171H188.069L184.145 161.226V171H182.795V158.724H184.451L188.753 169.488L193.253 158.724ZM201.735 171.288C200.835 171.288 199.959 171.066 199.107 170.622C198.255 170.166 197.547 169.554 196.983 168.786L198.081 167.814C198.513 168.498 199.065 169.044 199.737 169.452C200.409 169.848 201.135 170.046 201.915 170.046C202.767 170.046 203.415 169.86 203.859 169.488C204.303 169.104 204.525 168.588 204.525 167.94C204.525 167.232 204.285 166.692 203.805 166.32C203.337 165.936 202.587 165.6 201.555 165.312C198.963 164.676 197.667 163.5 197.667 161.784C197.667 160.716 198.015 159.894 198.711 159.318C199.407 158.742 200.373 158.454 201.609 158.454C202.509 158.454 203.313 158.622 204.021 158.958C204.741 159.294 205.383 159.81 205.947 160.506L204.885 161.406C204.453 160.818 203.979 160.386 203.463 160.11C202.947 159.822 202.329 159.678 201.609 159.678C200.853 159.678 200.235 159.858 199.755 160.218C199.275 160.566 199.035 161.046 199.035 161.658C199.035 162.282 199.257 162.78 199.701 163.152C200.145 163.512 200.895 163.818 201.951 164.07C203.199 164.406 204.165 164.868 204.849 165.456C205.545 166.044 205.893 166.872 205.893 167.94C205.893 168.6 205.725 169.182 205.389 169.686C205.053 170.19 204.567 170.586 203.931 170.874C203.307 171.15 202.575 171.288 201.735 171.288Z" fill="white"/>
<path d="M10 46C10 48.7614 7.76142 51 5 51C2.23858 51 0 48.7614 0 46C6.5 50.5 9.5 46.5 5 41C7.76142 41 10 43.2386 10 46Z" fill="#C4C4C4"/>
<path d="M10 124C10 126.761 7.76142 129 5 129C2.23858 129 0 126.761 0 124C6.5 128.5 9.5 124.5 5 119C7.76142 119 10 121.239 10 124Z" fill="#C4C4C4"/>
<path d="M10 164C10 166.761 7.76142 169 5 169C2.23858 169 0 166.761 0 164C6.5 168.5 9.5 164.5 5 159C7.76142 159 10 161.239 10 164Z" fill="#C4C4C4"/>
<path d="M10 85C10 87.7614 7.76142 90 5 90C2.23858 90 0 87.7614 0 85C6.5 89.5 9.5 85.5 5 80C7.76142 80 10 82.2386 10 85Z" fill="#C4C4C4"/>
</svg>
