<svg width="397" height="1037" viewBox="0 0 397 1037" fill="none" xmlns="http://www.w3.org/2000/svg">
<path d="M263.056 414.871C266.622 413.938 269.813 414.089 271.713 415.281L327.364 450.174C333.897 454.27 321.889 465.418 311.355 465.038L145.201 459.039C134.518 458.653 140.121 447.016 152.555 443.765L263.056 414.871Z" fill="#45464F"/>
<path d="M258.698 423.867C261.918 423.079 264.81 423.183 266.68 424.156L306.952 445.094C314.25 448.888 302.131 460.551 291.297 460.16L181.676 456.202C170.841 455.811 176.781 443.925 189.348 440.848L258.698 423.867Z" fill="url(#paint0_linear)"/>
<path d="M-67.3481 86.1375C-63.3134 71.6778 -44.5574 67.5643 -33.5247 78.7195L261.894 377.417C272.869 388.514 268.06 406.512 253.186 410.01L-152.176 505.331C-167.311 508.891 -181.375 494.793 -177.291 480.157L-67.3481 86.1375Z" fill="#45464F"/>
<path d="M-48.4007 136.59C-44.4195 122.416 -26.2071 118.133 -15.0502 128.747L217.181 349.684C228.707 360.649 224.087 379.169 208.937 382.732L-106.162 456.829C-121.312 460.392 -135.382 446.266 -131.269 431.624L-48.4007 136.59Z" fill="url(#paint1_linear)"/>
<path d="M-330.213 493.64C-336.908 480.294 -327.148 464.585 -312.217 464.673L121.437 467.25C136.93 467.342 146.439 484.255 138.468 497.54L-97.0213 890.027C-105.135 903.55 -124.978 902.8 -132.048 888.704L-330.213 493.64Z" fill="#45464F"/>
<path d="M-260.846 529.093C-266.732 516.301 -257.908 501.593 -243.851 500.767L69.3955 482.354C85.4426 481.411 95.9894 498.825 87.7191 512.609L-94.3597 816.079C-102.63 829.863 -122.959 828.753 -129.678 814.15L-260.846 529.093Z" fill="url(#paint2_linear)"/>
<path d="M158.431 496.968C151.736 483.622 161.496 467.913 176.427 468.002L322.801 468.871C338.294 468.963 347.803 485.876 339.833 499.161L260.346 631.64C252.232 645.163 232.39 644.414 225.319 630.318L158.431 496.968Z" fill="#45464F"/>
<path d="M186.684 510.644C180.798 497.851 189.622 483.144 203.679 482.318L299.015 476.714C315.062 475.77 325.609 493.185 317.339 506.969L261.924 599.33C253.653 613.114 233.324 612.003 226.605 597.4L186.684 510.644Z" fill="url(#paint3_linear)"/>
<path d="M129.632 530.343C137.701 517.781 156.192 518.17 163.726 531.06L200.556 594.075C208.374 607.451 198.671 624.253 183.178 624.167L106.143 623.739C90.3728 623.652 80.9032 606.198 89.4267 592.93L129.632 530.343Z" fill="#45464F"/>
<path d="M131.701 548.332C139.706 536.747 156.857 536.842 164.734 548.515L186.96 581.455C195.951 594.78 186.345 612.731 170.27 612.642L125.453 612.393C109.379 612.304 99.9719 594.248 109.11 581.024L131.701 548.332Z" fill="url(#paint4_linear)"/>
<path d="M19.6317 716.343C27.7015 703.781 46.1918 704.17 53.7259 717.06L90.5563 780.075C98.374 793.451 88.6708 810.253 73.1782 810.167L-3.85709 809.739C-19.6272 809.652 -29.0968 792.198 -20.5733 778.93L19.6317 716.343Z" fill="#45464F"/>
<path d="M21.7009 734.332C29.706 722.747 46.8574 722.842 54.7335 734.515L76.9601 767.455C85.9512 780.78 76.3449 798.731 60.2703 798.642L15.4532 798.393C-0.621428 798.304 -10.0281 780.248 -0.88972 767.024L21.7009 734.332Z" fill="url(#paint5_linear)"/>
<path d="M40.0533 664.416C33.3589 651.07 43.1186 635.361 58.0492 635.449L233.113 636.49C248.606 636.582 258.115 653.494 250.144 666.779L155.078 825.224C146.965 838.747 127.122 837.998 120.051 823.901L40.0533 664.416Z" fill="#45464F"/>
<path d="M72.4125 680.266C66.5263 667.474 75.3507 652.766 89.4077 651.94L206.505 645.057C222.553 644.114 233.099 661.528 224.829 675.312L156.764 788.755C148.494 802.539 128.165 801.429 121.446 786.826L72.4125 680.266Z" fill="url(#paint6_linear)"/>
<path d="M-47.7387 854.711C-54.4331 841.365 -44.6733 825.656 -29.7428 825.745L110.164 826.576C125.657 826.668 135.166 843.58 127.196 856.865L51.221 983.491C43.1073 997.014 23.2648 996.265 16.194 982.168L-47.7387 854.711Z" fill="#45464F"/>
<path d="M-26.6643 867.896C-32.5505 855.104 -23.7261 840.397 -9.66905 839.57L80.7612 834.255C96.8083 833.311 107.355 850.726 99.0847 864.51L46.5209 952.118C38.2506 965.902 17.9217 964.791 11.2022 950.188L-26.6643 867.896Z" fill="url(#paint7_linear)"/>
<defs>
<linearGradient id="paint0_linear" x1="263.747" y1="422.631" x2="261.991" y2="471.28" gradientUnits="userSpaceOnUse">
<stop offset="0.333333" stop-color="#303038"/>
<stop offset="0.807292" stop-color="#0F0F13" stop-opacity="0"/>
</linearGradient>
<linearGradient id="paint1_linear" x1="-39.6298" y1="105.363" x2="60.1463" y2="529.661" gradientUnits="userSpaceOnUse">
<stop offset="0.333333" stop-color="#303038"/>
<stop offset="0.807292" stop-color="#0F0F13" stop-opacity="0"/>
</linearGradient>
<linearGradient id="paint2_linear" x1="-273.089" y1="502.486" x2="86.6027" y2="718.297" gradientUnits="userSpaceOnUse">
<stop offset="0.333333" stop-color="#303038"/>
<stop offset="0.807292" stop-color="#0F0F13" stop-opacity="0"/>
</linearGradient>
<linearGradient id="paint3_linear" x1="174.441" y1="484.036" x2="328.028" y2="576.187" gradientUnits="userSpaceOnUse">
<stop offset="0.333333" stop-color="#303038"/>
<stop offset="0.807292" stop-color="#0F0F13" stop-opacity="0"/>
</linearGradient>
<linearGradient id="paint4_linear" x1="148.351" y1="524.236" x2="147.699" y2="641.944" gradientUnits="userSpaceOnUse">
<stop offset="0.333333" stop-color="#303038"/>
<stop offset="0.807292" stop-color="#0F0F13" stop-opacity="0"/>
</linearGradient>
<linearGradient id="paint5_linear" x1="38.3513" y1="710.236" x2="37.6985" y2="827.944" gradientUnits="userSpaceOnUse">
<stop offset="0.333333" stop-color="#303038"/>
<stop offset="0.807292" stop-color="#0F0F13" stop-opacity="0"/>
</linearGradient>
<linearGradient id="paint6_linear" x1="60.1694" y1="653.659" x2="234.339" y2="758.159" gradientUnits="userSpaceOnUse">
<stop offset="0.333333" stop-color="#303038"/>
<stop offset="0.807292" stop-color="#0F0F13" stop-opacity="0"/>
</linearGradient>
<linearGradient id="paint7_linear" x1="-38.9074" y1="841.289" x2="110.04" y2="930.655" gradientUnits="userSpaceOnUse">
<stop offset="0.333333" stop-color="#303038"/>
<stop offset="0.807292" stop-color="#0F0F13" stop-opacity="0"/>
</linearGradient>
</defs>
</svg>
