<svg width="165" height="50" viewBox="0 0 165 50" fill="none" xmlns="http://www.w3.org/2000/svg">
<path d="M135.758 7.93891C140.747 7.43418 145.55 5.82789 151.269 3.1638C150.626 8.42418 150.932 12.4377 152.786 15.709C154.609 18.9252 157.832 21.2544 162.624 23.406C158.551 25.5611 155.729 27.8386 153.949 30.8782C152.084 34.0603 151.439 37.946 151.482 43.0971C148.723 41.9777 146.388 41.209 144.024 40.7842C141.254 40.2864 138.493 40.2695 135.01 40.6599L134.982 40.6631L134.954 40.6678L117.841 43.5756C114.688 42.3128 112.111 41.5072 109.437 41.0557C106.7 40.5934 103.903 40.5095 100.331 40.6531C93.1513 40.4591 89.2374 41.2258 82.6003 43.6705L82.6003 43.6704L82.5899 43.6744C77.6328 45.5633 73.5181 46.3188 68.4834 45.8777C63.4008 45.4324 57.339 43.765 48.4886 40.7085L48.466 40.7007L48.4431 40.6939C41.0324 38.5249 35.3084 37.6899 29.8282 38.2131C24.8063 38.6926 20.0625 40.306 14.4822 42.9608C14.6995 38.0605 14.0707 34.3123 12.0734 31.1658C10.0753 28.018 6.79169 25.6091 2.0105 23.2003C6.21091 20.3483 9.12509 17.6893 11.0644 14.5238C13.0049 11.3566 13.9164 7.76987 14.2743 3.15866C16.6214 4.51267 18.729 5.49805 21.0598 6.00594C23.8593 6.61596 26.8932 6.51986 30.9614 5.69604L48.0422 2.50352C48.2652 2.60182 48.4848 2.69901 48.7015 2.79494C50.9703 3.79928 52.9274 4.66562 55.2487 5.21636C57.8893 5.84286 60.962 6.05637 65.5398 5.71828C69.9148 6.16705 72.996 6.09065 75.6976 5.50271C78.4174 4.91081 80.6843 3.8139 83.4192 2.34473C84.5902 1.71565 86.5254 1.28202 89.0675 1.09882C91.5802 0.917747 94.5797 0.987782 97.8015 1.29022C104.25 1.89552 111.495 3.42264 117.376 5.64963L117.416 5.66502L117.458 5.67683C124.667 7.71219 130.283 8.4927 135.758 7.93891Z" fill="url(#paint0_linear)" fill-opacity="0.5" stroke="#595353" stroke-width="2"/>
<path d="M33.6055 19.0156C34.2383 19.0156 34.8398 18.8398 35.4102 18.4883C35.9805 18.1289 36.4414 17.6719 36.793 17.1172C37.1523 16.5625 37.332 15.9883 37.332 15.3945C37.332 15.2773 37.3242 15.1602 37.3086 15.043C37.293 14.918 37.25 14.8125 37.1797 14.7266C37.1172 14.6406 37.0078 14.5977 36.8516 14.5977C35.8516 14.5977 35.1328 14.7461 34.6953 15.043C34.2656 15.332 33.9883 15.7461 33.8633 16.2852C33.7461 16.8242 33.6758 17.4688 33.6523 18.2188L33.6055 19.0156ZM34.707 32.3984C34.832 31.9688 34.8945 31.5664 34.8945 31.1914C34.8945 30.4023 34.5547 29.668 33.875 28.9883C33.1953 28.3086 32.0039 27.832 30.3008 27.5586C30.6523 27.293 30.9062 26.875 31.0625 26.3047C31.1797 25.8594 31.2383 25.3906 31.2383 24.8984C31.2383 24.7734 31.2266 24.5195 31.2031 24.1367C31.1797 23.7539 31.0625 23.3359 30.8516 22.8828C30.6484 22.4219 30.3672 22.1914 30.0078 22.1914C29.7188 22.1914 29.3867 22.3828 29.0117 22.7656C29.0742 22.1016 29.2109 21.6172 29.4219 21.3125C29.6328 21.0078 29.8672 20.7656 30.125 20.5859C30.2891 20.4609 30.4453 20.3203 30.5938 20.1641C30.7422 20 30.8633 19.7852 30.957 19.5195C31.0508 19.2539 31.0977 18.8945 31.0977 18.4414C31.0977 17.8711 31.0117 17.1367 30.8398 16.2383C30.668 15.3398 30.4102 14.4414 30.0664 13.543C29.7227 12.6367 29.293 11.8672 28.7773 11.2344C28.2539 10.5938 27.6406 10.2227 26.9375 10.1211C27.5703 9.76172 28.1758 9.58203 28.7539 9.58203C29.3086 9.58203 29.793 9.73047 30.207 10.0273C30.6289 10.3164 30.9922 10.668 31.2969 11.082C31.6016 11.4883 31.8672 11.8828 32.0938 12.2656C32.2734 12.5703 32.4375 12.8242 32.5859 13.0273C32.7344 13.2227 32.875 13.3203 33.0078 13.3203C33.3594 13.3203 33.9336 13.2734 34.7305 13.1797C35.5273 13.0781 36.4102 12.8906 37.3789 12.6172C38.3555 12.3359 39.3086 11.9375 40.2383 11.4219C40.2383 11.5703 40.1172 11.9727 39.875 12.6289C39.25 14.3164 38.9375 15.543 38.9375 16.3086C38.9375 16.6758 39.0195 16.9922 39.1836 17.2578C39.3555 17.5156 39.6445 17.6445 40.0508 17.6445C39.9414 17.8789 39.6797 18.1367 39.2656 18.418C38.8594 18.6992 38.3672 19.0078 37.7891 19.3438C37.1094 19.7422 36.4258 20.1797 35.7383 20.6562C35.0508 21.125 34.4688 21.6367 33.9922 22.1914C33.5234 22.7461 33.2891 23.3398 33.2891 23.9727C33.2891 24.6836 33.7305 25.4492 34.6133 26.2695C34.8789 26.5195 35.1602 26.8008 35.457 27.1133C36.1602 27.8789 36.5117 28.6328 36.5117 29.375C36.5117 30.1562 36.332 30.832 35.9727 31.4023C35.6211 31.9727 35.1992 32.3047 34.707 32.3984ZM48.0547 33.3242C47.1562 33.3242 46.3594 32.9883 45.6641 32.3164C44.9688 31.6445 44.4531 30.7344 44.1172 29.5859C43.875 28.8125 43.4844 28.293 42.9453 28.0273C42.4141 27.7539 41.8203 27.5625 41.1641 27.4531C40.6953 27.3672 40.2305 27.2461 39.7695 27.0898C39.3164 26.9336 38.9023 26.6758 38.5273 26.3164C38.1523 25.9492 37.8516 25.4141 37.625 24.7109C38.0312 24.7109 38.3164 24.6133 38.4805 24.418C38.7148 24.1445 38.832 23.7812 38.832 23.3281C38.832 22.3984 38.7891 21.4922 38.7031 20.6094C38.625 19.7266 38.5117 18.7305 38.3633 17.6211C38.2617 16.8477 38.1797 16.1914 38.1172 15.6523C38.0625 15.1055 38.0352 14.5586 38.0352 14.0117C38.0352 13.6523 38.0625 13.2891 38.1172 12.9219C38.1719 12.5547 38.2812 12.2109 38.4453 11.8906C38.6094 11.5703 38.8477 11.3008 39.1602 11.082C39.1602 11.1445 39.1562 11.2383 39.1484 11.3633C39.1406 11.4805 39.1367 11.6211 39.1367 11.7852C39.1367 11.9414 39.1406 12.1641 39.1484 12.4531C39.1562 12.7422 39.2188 13.0586 39.3359 13.4023C39.4531 13.7383 39.6602 13.9766 39.957 14.1172C40.1523 14.1875 40.3672 14.2227 40.6016 14.2227C40.9219 14.2227 41.2461 14.1797 41.5742 14.0938C41.9023 14 42.1797 13.9062 42.4062 13.8125C42.6328 13.7188 42.7617 13.6562 42.793 13.625C42.1602 14.3281 41.7031 15.293 41.4219 16.5195C41.125 17.7852 40.9766 19.0898 40.9766 20.4336C40.9766 21.5117 41.0625 22.3398 41.2344 22.918C41.3281 23.2305 41.4766 23.5469 41.6797 23.8672C41.8828 24.1875 42.1562 24.4609 42.5 24.6875C42.8516 24.9062 43.2891 25.0156 43.8125 25.0156L44.0703 25.0039C44.6016 24.918 44.9883 24.4258 45.2305 23.5273C45.457 22.668 45.5703 21.6641 45.5703 20.5156C45.5703 20.4766 45.5664 20.1523 45.5586 19.543C45.5508 18.9258 45.4336 18.1289 45.207 17.1523C44.9883 16.168 44.6836 15.5469 44.293 15.2891C45.1055 14.9297 45.707 14.4883 46.0977 13.9648C46.3398 13.6445 46.4609 13.2148 46.4609 12.6758C46.4609 12.3477 46.4141 11.9766 46.3203 11.5625C47.1328 12.3438 47.8906 13.2461 48.5938 14.2695C49.3047 15.293 49.6602 15.9883 49.6602 16.3555C49.0898 16.3555 48.6445 16.5039 48.3242 16.8008C47.7617 17.3242 47.4805 18.1562 47.4805 19.2969C47.4805 19.3594 47.4844 19.543 47.4922 19.8477C47.5 20.1523 47.5586 20.5703 47.668 21.1016C47.7852 21.625 47.9219 22.0859 48.0781 22.4844C48.2422 22.8828 48.4062 23.168 48.5703 23.3398C47.9297 23.6445 47.4844 24.2422 47.2344 25.1328C47.0625 25.75 46.9766 26.418 46.9766 27.1367C46.9766 27.4492 47.0117 27.9648 47.082 28.6836C47.1523 29.4023 47.4023 30.2148 47.832 31.1211C48.2617 32.0352 48.8359 32.6602 49.5547 32.9961C49.0391 33.2148 48.5391 33.3242 48.0547 33.3242ZM53.4336 17.4102C53.6758 17.4102 54.0234 17.2539 54.4766 16.9414C54.9375 16.6289 55.3555 16.2734 55.7305 15.875C56.1133 15.4688 56.3047 15.1367 56.3047 14.8789C56.3047 14.5508 56.0469 14.3594 55.5312 14.3047C55.3203 14.2891 55.0469 14.2812 54.7109 14.2812C54.1406 14.2812 53.7305 14.5273 53.4805 15.0195C53.3398 15.2852 53.2695 15.6367 53.2695 16.0742C53.2695 16.457 53.3242 16.9023 53.4336 17.4102ZM56.1641 33.6875C56.9609 32.9375 57.6406 32.0547 58.2031 31.0391C58.7656 30.0234 59.1328 28.9766 59.3047 27.8984C59.3594 27.5703 59.3867 27.25 59.3867 26.9375C59.3867 26.2188 59.2188 25.4648 58.8828 24.6758C58.5547 23.8867 57.832 23.1953 56.7148 22.6016C56.9336 22.3438 57.1445 22.0234 57.3477 21.6406C57.5508 21.2578 57.7148 20.8555 57.8398 20.4336C57.9648 20.0039 58.0273 19.6016 58.0273 19.2266C58.0273 18.375 57.6367 17.9492 56.8555 17.9492L56.6328 17.9609C54.7734 18.2031 53.7188 19.6289 53.4688 22.2383C53.4062 22.832 53.375 23.4336 53.375 24.043C53.375 24.6133 53.4141 25.3516 53.4922 26.2578C53.5781 27.1562 53.7148 28.0938 53.9023 29.0703C54.0898 30.0547 54.2383 30.7773 54.3477 31.2383L54.4297 31.6016C54.1797 31.0625 53.8516 30.5664 53.4453 30.1133C53.0469 29.6602 52.5938 29.2891 52.0859 29C51.5859 28.7188 51.0625 28.5781 50.5156 28.5781C49.5312 28.5781 48.6562 29.0859 47.8906 30.1016L48.7227 28.6484C49.5898 27.1953 50.1719 26.0742 50.4688 25.2852C50.6641 24.7461 50.7617 24.1523 50.7617 23.5039C50.7617 23.207 50.7422 22.8984 50.7031 22.5781C50.6484 22.1641 50.5 21.8477 50.2578 21.6289C50.0156 21.4102 49.7227 21.3008 49.3789 21.3008C49.0977 21.3008 48.8086 21.3828 48.5117 21.5469C48.2148 21.7031 47.9336 21.9492 47.668 22.2852C47.8086 21.3867 48.0352 20.7188 48.3477 20.2812C48.6602 19.8359 49 19.4766 49.3672 19.2031C49.7344 18.9219 50.0547 18.5664 50.3281 18.1367C50.6094 17.707 50.7656 17.0352 50.7969 16.1211C50.7891 14.8633 50.5273 13.8555 50.0117 13.0977C49.4961 12.3398 48.9297 11.7734 48.3125 11.3984C48.8828 11.3984 49.4492 11.4375 50.0117 11.5156C50.582 11.5938 51.1602 11.6836 51.7461 11.7852C52.3398 11.8867 52.9453 11.9805 53.5625 12.0664C54.1875 12.1445 54.8242 12.1836 55.4727 12.1836C56.3633 12.1836 57.2852 12.0625 58.2383 11.8203C59.1914 11.5781 60.1914 11.1328 61.2383 10.4844C61.2383 10.7656 61.1602 11.0625 61.0039 11.375C60.8555 11.6875 60.6602 12.0117 60.418 12.3477C60.1836 12.6758 59.9336 13.0078 59.668 13.3438C59.2383 13.875 58.875 14.3867 58.5781 14.8789C58.3281 15.2773 58.2031 15.6445 58.2031 15.9805C58.2031 16.0586 58.2109 16.1328 58.2266 16.2031C58.2266 16.7344 58.4648 17.1641 58.9414 17.4922C59.4258 17.8125 60.0352 17.9727 60.7695 17.9727C61.0977 17.9727 61.4492 17.9336 61.8242 17.8555C61.8242 18.1992 61.7539 18.5586 61.6133 18.9336C61.4805 19.3008 61.3242 19.6836 61.1445 20.082C60.8086 20.7773 60.5508 21.5117 60.3711 22.2852C60.3086 22.5586 60.2773 22.8359 60.2773 23.1172C60.2773 23.6484 60.4219 24.2773 60.7109 25.0039C61 25.7305 61.7812 26.582 63.0547 27.5586C63.0547 27.9336 62.9141 28.4336 62.6328 29.0586C62.3516 29.6914 61.9219 30.3359 61.3438 30.9922C60.7734 31.6562 60.0547 32.2383 59.1875 32.7383C58.3281 33.2383 57.3203 33.5547 56.1641 33.6875ZM64.9531 34.6484C64.3906 34.3906 64.0508 34.1211 63.9336 33.8398C63.8398 33.6055 63.793 33.3867 63.793 33.1836C63.793 32.707 63.8516 32.2539 63.9688 31.8242C64.0859 31.4023 64.1445 30.9844 64.1445 30.5703C64.1445 30.4062 64.125 30.1406 64.0859 29.7734C64.0469 29.4062 63.6484 28.9688 62.8906 28.4609C63.1094 28.4844 63.3242 28.4961 63.5352 28.4961C64.293 28.4961 64.918 28.3477 65.4102 28.0508C65.9023 27.7461 66.1484 27.3672 66.1484 26.9141C66.1484 26.5156 65.918 26.0469 65.457 25.5078C64.9961 24.9688 64.4102 24.4453 63.6992 23.9375C62.9961 23.4219 62.2461 22.9961 61.4492 22.6602C60.6523 22.3164 59.9141 22.1445 59.2344 22.1445C58.9219 22.1445 58.6289 22.1914 58.3555 22.2852C58.5664 21.5117 59.0117 20.8477 59.6914 20.293C60.3633 19.7305 61.1094 19.2578 61.9297 18.875C62.75 18.4844 63.4883 18.1719 64.1445 17.9375C64.5195 17.7891 64.8203 17.668 65.0469 17.5742C65.2812 17.4727 65.3984 17.3867 65.3984 17.3164C65.3984 17.0742 65.1602 16.7227 64.6836 16.2617C64.207 15.8008 63.6523 15.3789 63.0195 14.9961C62.3867 14.6133 61.8359 14.4219 61.3672 14.4219C61.1328 14.4219 60.9414 14.4883 60.793 14.6211C60.793 13.9023 60.9258 13.3984 61.1914 13.1094C61.457 12.8125 61.8398 12.6445 62.3398 12.6055L62.4102 12.5938C62.6992 12.5938 63.0117 12.6445 63.3477 12.7461C63.6836 12.8477 64.0508 12.9688 64.4492 13.1094C64.9492 13.2891 65.4727 13.457 66.0195 13.6133C66.5664 13.7695 67.1094 13.8555 67.6484 13.8711C68.2891 13.8711 68.9648 13.8242 69.6758 13.7305C70.3867 13.6367 71.043 13.4375 71.6445 13.1328C72.2539 12.8203 72.7305 12.3477 73.0742 11.7148C72.9648 12.7148 72.7188 13.4961 72.3359 14.0586C71.9531 14.6133 71.4805 15.0039 70.918 15.2305C70.3555 15.4492 69.7656 15.5586 69.1484 15.5586C68.0312 15.5586 66.7812 15.293 65.3984 14.7617C65.2734 14.8945 65.2109 15.0156 65.2109 15.125C65.2109 15.2422 65.3086 15.3633 65.5039 15.4883C65.707 15.6055 66.0742 15.7422 66.6055 15.8984C67.2617 16.0859 67.9336 16.3555 68.6211 16.707C69.3086 17.0586 69.8203 17.5938 70.1562 18.3125C69.4922 18.0312 68.8203 17.8906 68.1406 17.8906C67.4062 17.8906 66.707 18.0273 66.043 18.3008C65.3789 18.5664 64.8359 18.9258 64.4141 19.3789C64 19.832 63.793 20.3281 63.793 20.8672C63.793 21.25 63.9609 21.6992 64.2969 22.2148C64.6406 22.7227 65.0977 23.2188 65.668 23.7031C66.2383 24.1797 66.8789 24.5781 67.5898 24.8984C68.3086 25.2188 69.043 25.3789 69.793 25.3789C70.3945 25.3789 71.0352 25.2617 71.7148 25.0273C72.3945 24.7852 73.0273 24.3711 73.6133 23.7852C74.207 23.1992 74.6328 22.3789 74.8906 21.3242C74.9219 21.668 74.9375 21.9961 74.9375 22.3086C74.9375 23.418 74.6875 24.3984 74.1875 25.25C73.6953 26.1016 72.9727 26.8164 72.0195 27.3945C71.0742 27.9648 70.0977 28.457 69.0898 28.8711C68.3164 29.1992 67.6133 29.5391 66.9805 29.8906C66.0898 30.4297 65.4609 31.1289 65.0938 31.9883C64.8828 32.4805 64.7773 32.9805 64.7773 33.4883C64.7773 33.8711 64.8359 34.2578 64.9531 34.6484ZM83.3164 19.0156C83.9492 19.0156 84.5508 18.8398 85.1211 18.4883C85.6914 18.1289 86.1523 17.6719 86.5039 17.1172C86.8633 16.5625 87.043 15.9883 87.043 15.3945C87.043 15.2773 87.0352 15.1602 87.0195 15.043C87.0039 14.918 86.9609 14.8125 86.8906 14.7266C86.8281 14.6406 86.7188 14.5977 86.5625 14.5977C85.5625 14.5977 84.8438 14.7461 84.4062 15.043C83.9766 15.332 83.6992 15.7461 83.5742 16.2852C83.457 16.8242 83.3867 17.4688 83.3633 18.2188L83.3164 19.0156ZM84.418 32.3984C84.543 31.9688 84.6055 31.5664 84.6055 31.1914C84.6055 30.4023 84.2656 29.668 83.5859 28.9883C82.9062 28.3086 81.7148 27.832 80.0117 27.5586C80.3633 27.293 80.6172 26.875 80.7734 26.3047C80.8906 25.8594 80.9492 25.3906 80.9492 24.8984C80.9492 24.7734 80.9375 24.5195 80.9141 24.1367C80.8906 23.7539 80.7734 23.3359 80.5625 22.8828C80.3594 22.4219 80.0781 22.1914 79.7188 22.1914C79.4297 22.1914 79.0977 22.3828 78.7227 22.7656C78.7852 22.1016 78.9219 21.6172 79.1328 21.3125C79.3438 21.0078 79.5781 20.7656 79.8359 20.5859C80 20.4609 80.1562 20.3203 80.3047 20.1641C80.4531 20 80.5742 19.7852 80.668 19.5195C80.7617 19.2539 80.8086 18.8945 80.8086 18.4414C80.8086 17.8711 80.7227 17.1367 80.5508 16.2383C80.3789 15.3398 80.1211 14.4414 79.7773 13.543C79.4336 12.6367 79.0039 11.8672 78.4883 11.2344C77.9648 10.5938 77.3516 10.2227 76.6484 10.1211C77.2812 9.76172 77.8867 9.58203 78.4648 9.58203C79.0195 9.58203 79.5039 9.73047 79.918 10.0273C80.3398 10.3164 80.7031 10.668 81.0078 11.082C81.3125 11.4883 81.5781 11.8828 81.8047 12.2656C81.9844 12.5703 82.1484 12.8242 82.2969 13.0273C82.4453 13.2227 82.5859 13.3203 82.7188 13.3203C83.0703 13.3203 83.6445 13.2734 84.4414 13.1797C85.2383 13.0781 86.1211 12.8906 87.0898 12.6172C88.0664 12.3359 89.0195 11.9375 89.9492 11.4219C89.9492 11.5703 89.8281 11.9727 89.5859 12.6289C88.9609 14.3164 88.6484 15.543 88.6484 16.3086C88.6484 16.6758 88.7305 16.9922 88.8945 17.2578C89.0664 17.5156 89.3555 17.6445 89.7617 17.6445C89.6523 17.8789 89.3906 18.1367 88.9766 18.418C88.5703 18.6992 88.0781 19.0078 87.5 19.3438C86.8203 19.7422 86.1367 20.1797 85.4492 20.6562C84.7617 21.125 84.1797 21.6367 83.7031 22.1914C83.2344 22.7461 83 23.3398 83 23.9727C83 24.6836 83.4414 25.4492 84.3242 26.2695C84.5898 26.5195 84.8711 26.8008 85.168 27.1133C85.8711 27.8789 86.2227 28.6328 86.2227 29.375C86.2227 30.1562 86.043 30.832 85.6836 31.4023C85.332 31.9727 84.9102 32.3047 84.418 32.3984ZM92.7969 23.7148C93.2031 23.7148 93.6836 23.5195 94.2383 23.1289C94.8008 22.7305 95.2812 22.2031 95.6797 21.5469C96.0469 20.9375 96.2305 20.2617 96.2305 19.5195C96.2305 18.8867 95.9922 18.3164 95.5156 17.8086C95.0938 17.3633 94.6094 17.0117 94.0625 16.7539C93.5156 16.4883 93.0469 16.3555 92.6562 16.3555C92.2891 16.3555 92.043 16.4688 91.918 16.6953C91.8164 16.8906 91.7656 17.1172 91.7656 17.375C91.7656 17.4297 91.7695 17.5508 91.7773 17.7383C91.793 17.9258 91.8555 18.1758 91.9648 18.4883C92.0742 18.8008 92.1875 19.0469 92.3047 19.2266C91.8438 18.8359 91.3984 18.6406 90.9688 18.6406C90.5859 18.6406 90.2773 18.7734 90.043 19.0391C89.7305 19.3828 89.5742 19.7695 89.5742 20.1992C89.5742 20.4414 89.6445 20.6836 89.7852 20.9258C89.9336 21.1602 90.2148 21.293 90.6289 21.3242C90.8555 21.3242 91.0625 21.3086 91.25 21.2773C91.4453 21.2461 91.6289 21.1445 91.8008 20.9727C91.6367 21.457 91.5547 21.8828 91.5547 22.25C91.5547 23.2266 91.9688 23.7148 92.7969 23.7148ZM94.4609 33.3242C94.0391 33.3242 93.6641 33.1992 93.3359 32.9492C93.0156 32.707 92.7266 32.4023 92.4688 32.0352C92.2188 31.668 91.9805 31.2891 91.7539 30.8984C91.4883 30.4375 91.2227 30.0352 90.957 29.6914C91.2773 29.207 91.4375 28.5156 91.4375 27.6172C91.4375 26.8203 91.2422 26.0352 90.8516 25.2617C90.4688 24.4883 89.793 23.9492 88.8242 23.6445C88.9414 23.5195 89.0039 23.3242 89.0117 23.0586C89.0117 22.793 88.9453 22.5156 88.8125 22.2266C88.6797 21.9297 88.4688 21.6758 88.1797 21.4648C87.8906 21.2539 87.5078 21.1484 87.0312 21.1484L86.7852 21.1602C86.7852 20.5508 86.8945 19.9727 87.1133 19.4258C87.332 18.8711 87.6133 18.3281 87.957 17.7969C88.3008 17.2578 88.6719 16.7227 89.0703 16.1914C89.5156 15.5977 89.9375 14.9844 90.3359 14.3516C90.7422 13.7109 91.0781 13.0391 91.3438 12.3359C91.6094 11.625 91.7422 10.8594 91.7422 10.0391C91.7422 8.75781 91.4219 7.71875 90.7812 6.92188C91.0469 6.88281 91.2852 6.86328 91.4961 6.86328C92.5586 6.86328 93.2266 7.27734 93.5 8.10547C93.625 8.51172 93.6875 9.00781 93.6875 9.59375C93.6875 9.94531 93.6758 10.2969 93.6523 10.6484C93.6289 10.9219 93.6172 11.1836 93.6172 11.4336C93.6172 11.5586 93.6211 11.7383 93.6289 11.9727C93.6367 12.207 93.6953 12.4297 93.8047 12.6406C93.9141 12.8516 94.1172 12.957 94.4141 12.957C94.6953 12.957 95.0781 12.8438 95.5625 12.6172C95.375 13.1094 95.2812 13.5781 95.2812 14.0234C95.2812 14.3906 95.3828 14.8516 95.5859 15.4062C95.7891 15.9531 96.168 16.4648 96.7227 16.9414C97.2852 17.4102 97.7695 17.6445 98.1758 17.6445C98.4883 17.6445 98.7578 17.5898 98.9844 17.4805C99.2188 17.3633 99.418 17.1484 99.582 16.8359C99.582 17.4609 99.4375 18.1289 99.1484 18.8398C98.8672 19.543 98.5 20.2773 98.0469 21.043C97.6016 21.8086 97.1211 22.5898 96.6055 23.3867C95.8086 24.5977 95.0938 25.8008 94.4609 26.9961C93.8359 28.1914 93.4766 29.3281 93.3828 30.4062L93.3711 30.7344C93.3711 31.6797 93.7344 32.543 94.4609 33.3242ZM108.02 31.2383C108.168 30.3477 108.242 29.6133 108.242 29.0352C108.242 28.9336 108.23 28.707 108.207 28.3555C108.184 28.0039 108.09 27.6523 107.926 27.3008C107.77 26.9414 107.586 26.625 107.375 26.3516C107.164 26.0781 106.965 25.7578 106.777 25.3906C106.598 25.0156 106.457 24.5117 106.355 23.8789C106.121 23.8945 105.953 24.1211 105.852 24.5586C105.75 24.9961 105.672 25.5312 105.617 26.1641C105.539 26.9844 105.406 27.7617 105.219 28.4961C105.039 29.2305 104.699 29.6914 104.199 29.8789V29.8203C104.199 28.8594 103.82 27.9297 103.062 27.0312C102.305 26.125 101.184 25.3945 99.6992 24.8398C100.098 24.1289 100.297 23.0352 100.297 21.5586C100.297 20.3633 100.168 19.1445 99.9102 17.9023C99.6523 16.6523 99.2617 15.7109 98.7383 15.0781C98.7383 14.5938 98.8398 14.1562 99.043 13.7656C99.2461 13.375 99.5195 13.0117 99.8633 12.6758V13.2266C99.8633 13.3438 99.8633 13.5039 99.8633 13.707C99.8711 13.9023 99.9023 14.125 99.957 14.375C100.02 14.625 100.117 14.832 100.25 14.9961C100.391 15.1602 100.586 15.2422 100.836 15.2422C100.992 15.2422 101.152 15.2266 101.316 15.1953C101.48 15.1562 101.613 15.0664 101.715 14.9258C101.824 14.7852 101.879 14.5781 101.879 14.3047V14.2461C102.113 14.2461 102.281 14.4766 102.383 14.9375C102.516 15.5391 102.582 16.3438 102.582 17.3516C102.582 18.1484 102.539 19.2031 102.453 20.5156C102.43 20.9141 102.418 21.1797 102.418 21.3125C102.418 22.0234 102.48 22.707 102.605 23.3633C102.785 24.3477 103.125 24.8398 103.625 24.8398C103.891 24.8398 104.117 24.7031 104.305 24.4297C104.5 24.1484 104.66 23.7969 104.785 23.375C104.918 22.9453 105.02 22.5 105.09 22.0391C105.168 21.5703 105.223 21.1367 105.254 20.7383C105.285 20.332 105.301 20.0273 105.301 19.8242C105.301 19.4805 105.273 19.1406 105.219 18.8047C105.172 18.4688 105.148 18.1328 105.148 17.7969C105.148 17.1719 105.266 16.5469 105.5 15.9219C105.734 15.2891 106 14.7266 106.297 14.2344C106.297 14.6641 106.402 15.1367 106.613 15.6523C106.832 16.168 107.047 16.6094 107.258 16.9766C107.477 17.3438 107.605 17.543 107.645 17.5742C107.207 18.1289 106.941 18.8086 106.848 19.6133C106.816 19.918 106.801 20.2188 106.801 20.5156C106.801 21.0156 106.863 21.5898 106.988 22.2383C107.113 22.8789 107.336 23.4727 107.656 24.0195C107.977 24.5664 108.32 24.8398 108.688 24.8398C108.977 24.8398 109.219 24.6992 109.414 24.418C109.617 24.1367 109.781 23.7969 109.906 23.3984C110.031 23 110.121 22.6055 110.176 22.2148C110.23 21.8242 110.258 21.5234 110.258 21.3125L110.27 20.1875C110.27 19.5859 110.227 18.9141 110.141 18.1719C110.055 17.4297 109.77 16.8203 109.285 16.3438C110.223 15.8438 110.801 15.1953 111.02 14.3984C111.113 14.0547 111.16 13.7031 111.16 13.3438C111.16 12.8828 111.051 12.3164 110.832 11.6445C110.621 10.9648 110.242 10.2695 109.695 9.55859C109.156 8.84766 108.598 8.32422 108.02 7.98828C108.668 8.06641 109.375 8.26562 110.141 8.58594C110.906 8.90625 111.586 9.33984 112.18 9.88672C112.781 10.4336 113.16 11.0898 113.316 11.8555C113.371 12.1992 113.398 12.5273 113.398 12.8398C113.398 13.3945 113.293 14.0898 113.082 14.9258C112.918 15.5273 112.836 16.1055 112.836 16.6602C112.836 17.1836 113.043 17.7227 113.457 18.2773C112.848 18.5508 112.414 19.0078 112.156 19.6484C111.883 20.3438 111.746 21.1445 111.746 22.0508C111.746 22.7461 111.805 23.4219 111.922 24.0781C112.039 24.7344 112.18 25.2539 112.344 25.6367C112.164 25.5586 111.98 25.5195 111.793 25.5195C111.387 25.5195 111.035 25.6875 110.738 26.0234C110.441 26.3516 110.176 26.7656 109.941 27.2656C109.707 27.7656 109.488 28.2812 109.285 28.8125C109.09 29.3438 108.891 29.8242 108.688 30.2539C108.484 30.6836 108.262 31.0117 108.02 31.2383ZM117.031 34.6484C116.469 34.3906 116.129 34.1211 116.012 33.8398C115.918 33.6055 115.871 33.3867 115.871 33.1836C115.871 32.707 115.93 32.2539 116.047 31.8242C116.164 31.4023 116.223 30.9844 116.223 30.5703C116.223 30.4062 116.203 30.1406 116.164 29.7734C116.125 29.4062 115.727 28.9688 114.969 28.4609C115.188 28.4844 115.402 28.4961 115.613 28.4961C116.371 28.4961 116.996 28.3477 117.488 28.0508C117.98 27.7461 118.227 27.3672 118.227 26.9141C118.227 26.5156 117.996 26.0469 117.535 25.5078C117.074 24.9688 116.488 24.4453 115.777 23.9375C115.074 23.4219 114.324 22.9961 113.527 22.6602C112.73 22.3164 111.992 22.1445 111.312 22.1445C111 22.1445 110.707 22.1914 110.434 22.2852C110.645 21.5117 111.09 20.8477 111.77 20.293C112.441 19.7305 113.188 19.2578 114.008 18.875C114.828 18.4844 115.566 18.1719 116.223 17.9375C116.598 17.7891 116.898 17.668 117.125 17.5742C117.359 17.4727 117.477 17.3867 117.477 17.3164C117.477 17.0742 117.238 16.7227 116.762 16.2617C116.285 15.8008 115.73 15.3789 115.098 14.9961C114.465 14.6133 113.914 14.4219 113.445 14.4219C113.211 14.4219 113.02 14.4883 112.871 14.6211C112.871 13.9023 113.004 13.3984 113.27 13.1094C113.535 12.8125 113.918 12.6445 114.418 12.6055L114.488 12.5938C114.777 12.5938 115.09 12.6445 115.426 12.7461C115.762 12.8477 116.129 12.9688 116.527 13.1094C117.027 13.2891 117.551 13.457 118.098 13.6133C118.645 13.7695 119.188 13.8555 119.727 13.8711C120.367 13.8711 121.043 13.8242 121.754 13.7305C122.465 13.6367 123.121 13.4375 123.723 13.1328C124.332 12.8203 124.809 12.3477 125.152 11.7148C125.043 12.7148 124.797 13.4961 124.414 14.0586C124.031 14.6133 123.559 15.0039 122.996 15.2305C122.434 15.4492 121.844 15.5586 121.227 15.5586C120.109 15.5586 118.859 15.293 117.477 14.7617C117.352 14.8945 117.289 15.0156 117.289 15.125C117.289 15.2422 117.387 15.3633 117.582 15.4883C117.785 15.6055 118.152 15.7422 118.684 15.8984C119.34 16.0859 120.012 16.3555 120.699 16.707C121.387 17.0586 121.898 17.5938 122.234 18.3125C121.57 18.0312 120.898 17.8906 120.219 17.8906C119.484 17.8906 118.785 18.0273 118.121 18.3008C117.457 18.5664 116.914 18.9258 116.492 19.3789C116.078 19.832 115.871 20.3281 115.871 20.8672C115.871 21.25 116.039 21.6992 116.375 22.2148C116.719 22.7227 117.176 23.2188 117.746 23.7031C118.316 24.1797 118.957 24.5781 119.668 24.8984C120.387 25.2188 121.121 25.3789 121.871 25.3789C122.473 25.3789 123.113 25.2617 123.793 25.0273C124.473 24.7852 125.105 24.3711 125.691 23.7852C126.285 23.1992 126.711 22.3789 126.969 21.3242C127 21.668 127.016 21.9961 127.016 22.3086C127.016 23.418 126.766 24.3984 126.266 25.25C125.773 26.1016 125.051 26.8164 124.098 27.3945C123.152 27.9648 122.176 28.457 121.168 28.8711C120.395 29.1992 119.691 29.5391 119.059 29.8906C118.168 30.4297 117.539 31.1289 117.172 31.9883C116.961 32.4805 116.855 32.9805 116.855 33.4883C116.855 33.8711 116.914 34.2578 117.031 34.6484ZM128.223 17.4102C128.465 17.4102 128.812 17.2539 129.266 16.9414C129.727 16.6289 130.145 16.2734 130.52 15.875C130.902 15.4688 131.094 15.1367 131.094 14.8789C131.094 14.5508 130.836 14.3594 130.32 14.3047C130.109 14.2891 129.836 14.2812 129.5 14.2812C128.93 14.2812 128.52 14.5273 128.27 15.0195C128.129 15.2852 128.059 15.6367 128.059 16.0742C128.059 16.457 128.113 16.9023 128.223 17.4102ZM130.953 33.6875C131.75 32.9375 132.43 32.0547 132.992 31.0391C133.555 30.0234 133.922 28.9766 134.094 27.8984C134.148 27.5703 134.176 27.25 134.176 26.9375C134.176 26.2188 134.008 25.4648 133.672 24.6758C133.344 23.8867 132.621 23.1953 131.504 22.6016C131.723 22.3438 131.934 22.0234 132.137 21.6406C132.34 21.2578 132.504 20.8555 132.629 20.4336C132.754 20.0039 132.816 19.6016 132.816 19.2266C132.816 18.375 132.426 17.9492 131.645 17.9492L131.422 17.9609C129.562 18.2031 128.508 19.6289 128.258 22.2383C128.195 22.832 128.164 23.4336 128.164 24.043C128.164 24.6133 128.203 25.3516 128.281 26.2578C128.367 27.1562 128.504 28.0938 128.691 29.0703C128.879 30.0547 129.027 30.7773 129.137 31.2383L129.219 31.6016C128.969 31.0625 128.641 30.5664 128.234 30.1133C127.836 29.6602 127.383 29.2891 126.875 29C126.375 28.7188 125.852 28.5781 125.305 28.5781C124.32 28.5781 123.445 29.0859 122.68 30.1016L123.512 28.6484C124.379 27.1953 124.961 26.0742 125.258 25.2852C125.453 24.7461 125.551 24.1523 125.551 23.5039C125.551 23.207 125.531 22.8984 125.492 22.5781C125.438 22.1641 125.289 21.8477 125.047 21.6289C124.805 21.4102 124.512 21.3008 124.168 21.3008C123.887 21.3008 123.598 21.3828 123.301 21.5469C123.004 21.7031 122.723 21.9492 122.457 22.2852C122.598 21.3867 122.824 20.7188 123.137 20.2812C123.449 19.8359 123.789 19.4766 124.156 19.2031C124.523 18.9219 124.844 18.5664 125.117 18.1367C125.398 17.707 125.555 17.0352 125.586 16.1211C125.578 14.8633 125.316 13.8555 124.801 13.0977C124.285 12.3398 123.719 11.7734 123.102 11.3984C123.672 11.3984 124.238 11.4375 124.801 11.5156C125.371 11.5938 125.949 11.6836 126.535 11.7852C127.129 11.8867 127.734 11.9805 128.352 12.0664C128.977 12.1445 129.613 12.1836 130.262 12.1836C131.152 12.1836 132.074 12.0625 133.027 11.8203C133.98 11.5781 134.98 11.1328 136.027 10.4844C136.027 10.7656 135.949 11.0625 135.793 11.375C135.645 11.6875 135.449 12.0117 135.207 12.3477C134.973 12.6758 134.723 13.0078 134.457 13.3438C134.027 13.875 133.664 14.3867 133.367 14.8789C133.117 15.2773 132.992 15.6445 132.992 15.9805C132.992 16.0586 133 16.1328 133.016 16.2031C133.016 16.7344 133.254 17.1641 133.73 17.4922C134.215 17.8125 134.824 17.9727 135.559 17.9727C135.887 17.9727 136.238 17.9336 136.613 17.8555C136.613 18.1992 136.543 18.5586 136.402 18.9336C136.27 19.3008 136.113 19.6836 135.934 20.082C135.598 20.7773 135.34 21.5117 135.16 22.2852C135.098 22.5586 135.066 22.8359 135.066 23.1172C135.066 23.6484 135.211 24.2773 135.5 25.0039C135.789 25.7305 136.57 26.582 137.844 27.5586C137.844 27.9336 137.703 28.4336 137.422 29.0586C137.141 29.6914 136.711 30.3359 136.133 30.9922C135.562 31.6562 134.844 32.2383 133.977 32.7383C133.117 33.2383 132.109 33.5547 130.953 33.6875Z" fill="url(#paint1_linear)"/>
<defs>
<linearGradient id="paint0_linear" x1="82.5" y1="1.46378" x2="82.5" y2="44.6088" gradientUnits="userSpaceOnUse">
<stop offset="0.0208333" stop-color="#333341" stop-opacity="0.67"/>
<stop offset="0.598958" stop-color="#4E4E53"/>
</linearGradient>
<linearGradient id="paint1_linear" x1="83" y1="0" x2="83" y2="50" gradientUnits="userSpaceOnUse">
<stop offset="0.28125" stop-color="#FAFBFF"/>
<stop offset="0.677083" stop-color="#C5CCD9" stop-opacity="0.29"/>
</linearGradient>
</defs>
</svg>
