<svg width="25" height="25" viewBox="0 0 25 25" fill="none" xmlns="http://www.w3.org/2000/svg">
<path fill-rule="evenodd" clip-rule="evenodd" d="M9 18C13.9706 18 18 13.9706 18 9C18 4.02944 13.9706 0 9 0C4.02942 0 0 4.02944 0 9C0 13.9706 4.02942 18 9 18ZM9 17C13.4183 17 17 13.4183 17 9C17 4.58172 13.4183 1 9 1C4.58173 1 1 4.58172 1 9C1 13.4183 4.58173 17 9 17Z" fill="#E78484"/>
<rect x="14.4385" y="15.1316" width="0.980166" height="12.5515" rx="0.490083" transform="rotate(-45 14.4385 15.1316)" fill="#E78484"/>
</svg>
