<svg width="181" height="693" viewBox="0 0 181 693" fill="none" xmlns="http://www.w3.org/2000/svg">
<path d="M309.124 517.72C317.569 530.033 310.033 546.923 295.229 548.863L75.4662 577.659C60.1047 579.672 48.3864 564.208 54.4791 549.964L146.477 334.879C152.679 320.379 172.439 318.427 181.359 331.432L309.124 517.72Z" fill="#45464F"/>
<path d="M276.463 502.636C284.032 514.51 277.287 530.279 263.473 533.007L113.677 562.586C97.9064 565.699 85.0922 549.879 91.4139 535.099L159.137 376.766C165.458 361.987 185.75 360.326 194.39 373.881L276.463 502.636Z" fill="url(#paint0_linear)"/>
<path d="M227.431 118.521C242.36 118.288 252.27 133.903 245.705 147.313L184.183 272.97C177.37 286.885 158.006 288.104 149.502 275.153L68.4488 151.717C59.7927 138.535 69.0868 120.987 84.8552 120.742L227.431 118.521Z" fill="#45464F"/>
<path d="M206.4 131.776C220.479 132.031 229.894 146.368 224.532 159.388L190.039 243.15C183.918 258.014 163.651 259.949 154.827 246.513L98.7491 161.111C89.9259 147.675 99.7567 129.846 115.829 130.137L206.4 131.776Z" fill="url(#paint1_linear)"/>
<defs>
<linearGradient id="paint0_linear" x1="292.207" y1="527.333" x2="69.6315" y2="432.133" gradientUnits="userSpaceOnUse">
<stop offset="0.333333" stop-color="#303038"/>
<stop offset="0.807292" stop-color="#0F0F13" stop-opacity="0"/>
</linearGradient>
<linearGradient id="paint1_linear" x1="235.684" y1="132.306" x2="90.4895" y2="227.647" gradientUnits="userSpaceOnUse">
<stop offset="0.333333" stop-color="#303038"/>
<stop offset="0.807292" stop-color="#0F0F13" stop-opacity="0"/>
</linearGradient>
</defs>
</svg>
