<svg width="442" height="233" viewBox="0 0 442 233" fill="none" xmlns="http://www.w3.org/2000/svg">
<rect width="442" height="233" rx="46" fill="#420E13"/>
<path d="M185.513 51.384C184.313 51.384 183.145 51.088 182.009 50.496C180.873 49.888 179.929 49.072 179.177 48.048L180.641 46.752C181.217 47.664 181.953 48.392 182.849 48.936C183.745 49.464 184.713 49.728 185.753 49.728C186.889 49.728 187.753 49.48 188.345 48.984C188.937 48.472 189.233 47.784 189.233 46.92C189.233 45.976 188.913 45.256 188.273 44.76C187.649 44.248 186.649 43.8 185.273 43.416C181.817 42.568 180.089 41 180.089 38.712C180.089 37.288 180.553 36.192 181.481 35.424C182.409 34.656 183.697 34.272 185.345 34.272C186.545 34.272 187.617 34.496 188.561 34.944C189.521 35.392 190.377 36.08 191.129 37.008L189.713 38.208C189.137 37.424 188.505 36.848 187.817 36.48C187.129 36.096 186.305 35.904 185.345 35.904C184.337 35.904 183.513 36.144 182.873 36.624C182.233 37.088 181.913 37.728 181.913 38.544C181.913 39.376 182.209 40.04 182.801 40.536C183.393 41.016 184.393 41.424 185.801 41.76C187.465 42.208 188.753 42.824 189.665 43.608C190.593 44.392 191.057 45.496 191.057 46.92C191.057 47.8 190.833 48.576 190.385 49.248C189.937 49.92 189.289 50.448 188.441 50.832C187.609 51.2 186.633 51.384 185.513 51.384ZM193.457 51V49.416H195.041V36.216H193.457V34.632H198.425V36.216H196.841V49.416H198.425V51H193.457ZM207.122 51.384C205.746 51.384 204.554 51.048 203.546 50.376C202.554 49.688 201.786 48.712 201.242 47.448C200.714 46.168 200.45 44.64 200.45 42.864C200.45 41.072 200.714 39.536 201.242 38.256C201.786 36.96 202.554 35.976 203.546 35.304C204.554 34.616 205.746 34.272 207.122 34.272C208.386 34.272 209.474 34.56 210.386 35.136C211.314 35.696 212.106 36.528 212.762 37.632L211.346 38.64C210.338 36.816 208.93 35.904 207.122 35.904C205.618 35.904 204.442 36.52 203.594 37.752C202.762 38.968 202.346 40.664 202.346 42.84C202.346 45 202.77 46.696 203.618 47.928C204.466 49.144 205.634 49.752 207.122 49.752C207.954 49.752 208.698 49.552 209.354 49.152C210.026 48.752 210.554 48.16 210.938 47.376C211.322 46.592 211.514 45.632 211.514 44.496H207.65V43.008H213.29V44.496C213.29 45.984 213.026 47.248 212.498 48.288C211.97 49.312 211.234 50.088 210.29 50.616C209.362 51.128 208.306 51.384 207.122 51.384ZM216.229 51V34.632H218.149L226.477 48.288V34.632H228.277V51H226.357L218.029 37.392V51H216.229ZM241.668 51V49.416H243.252V36.216H241.668V34.632H246.636V36.216H245.052V49.416H246.636V51H241.668ZM249.885 51V34.632H251.805L260.133 48.288V34.632H261.933V51H260.013L251.685 37.392V51H249.885Z" fill="#852F31"/>
<path d="M182.009 50.496L181.773 50.9369L181.777 50.9394L182.009 50.496ZM179.177 48.048L178.845 47.6736L178.503 47.9761L178.774 48.344L179.177 48.048ZM180.641 46.752L181.063 46.485L180.749 45.9879L180.309 46.3776L180.641 46.752ZM182.849 48.936L182.589 49.3634L182.595 49.3668L182.849 48.936ZM188.345 48.984L188.666 49.3673L188.672 49.3622L188.345 48.984ZM188.273 44.76L187.955 45.1467L187.966 45.1552L188.273 44.76ZM185.273 43.416L185.407 42.9344L185.399 42.9323L185.392 42.9304L185.273 43.416ZM181.481 35.424L181.162 35.0388L181.481 35.424ZM188.561 34.944L188.346 35.3957L188.349 35.3971L188.561 34.944ZM191.129 37.008L191.452 37.3894L191.825 37.0732L191.517 36.6932L191.129 37.008ZM189.713 38.208L189.31 38.504L189.627 38.936L190.036 38.5894L189.713 38.208ZM187.817 36.48L187.573 36.9167L187.581 36.9209L187.817 36.48ZM182.873 36.624L183.166 37.0289L183.173 37.024L182.873 36.624ZM182.801 40.536L182.479 40.9193L182.486 40.9244L182.801 40.536ZM185.801 41.76L185.931 41.2772L185.924 41.2753L185.917 41.2737L185.801 41.76ZM189.665 43.608L189.339 43.9872L189.342 43.9899L189.665 43.608ZM190.385 49.248L190.801 49.5254L190.385 49.248ZM188.441 50.832L188.643 51.2893L188.647 51.2875L188.441 50.832ZM185.513 50.884C184.398 50.884 183.309 50.61 182.24 50.0526L181.777 50.9394C182.98 51.566 184.227 51.884 185.513 51.884V50.884ZM182.244 50.0552C181.173 49.4819 180.287 48.715 179.58 47.752L178.774 48.344C179.57 49.429 180.572 50.2941 181.773 50.9368L182.244 50.0552ZM179.508 48.4224L180.972 47.1264L180.309 46.3776L178.845 47.6736L179.508 48.4224ZM180.218 47.019C180.834 47.9944 181.625 48.7781 182.589 49.3634L183.108 48.5086C182.28 48.0059 181.599 47.3336 181.063 46.485L180.218 47.019ZM182.595 49.3668C183.568 49.9401 184.623 50.228 185.753 50.228V49.228C184.802 49.228 183.921 48.9879 183.102 48.5052L182.595 49.3668ZM185.753 50.228C186.952 50.228 187.95 49.9672 188.666 49.3673L188.023 48.6007C187.555 48.9928 186.825 49.228 185.753 49.228V50.228ZM188.672 49.3622C189.386 48.7446 189.733 47.9122 189.733 46.92H188.733C188.733 47.6558 188.487 48.1993 188.017 48.6058L188.672 49.3622ZM189.733 46.92C189.733 45.8503 189.362 44.9719 188.579 44.3648L187.966 45.1552C188.463 45.5401 188.733 46.1017 188.733 46.92H189.733ZM188.59 44.3735C187.886 43.7957 186.806 43.3249 185.407 42.9344L185.138 43.8976C186.491 44.2751 187.412 44.7003 187.955 45.1465L188.59 44.3735ZM185.392 42.9304C183.706 42.5167 182.499 41.9401 181.721 41.2337C180.959 40.5424 180.589 39.7118 180.589 38.712H179.589C179.589 40.0002 180.082 41.0976 181.049 41.9743C181.998 42.8359 183.383 43.4673 185.153 43.9016L185.392 42.9304ZM180.589 38.712C180.589 37.4069 181.007 36.4645 181.799 35.8092L181.162 35.0388C180.098 35.9195 179.589 37.1691 179.589 38.712H180.589ZM181.799 35.8092C182.61 35.1387 183.77 34.772 185.345 34.772V33.772C183.623 33.772 182.208 34.1733 181.162 35.0388L181.799 35.8092ZM185.345 34.772C186.481 34.772 187.478 34.9839 188.346 35.3957L188.775 34.4923C187.755 34.0081 186.608 33.772 185.345 33.772V34.772ZM188.349 35.3971C189.232 35.8091 190.03 36.4462 190.74 37.3228L191.517 36.6932C190.723 35.7138 189.809 34.9749 188.772 34.4909L188.349 35.3971ZM190.805 36.6266L189.389 37.8266L190.036 38.5894L191.452 37.3894L190.805 36.6266ZM190.115 37.912C189.506 37.0823 188.82 36.4499 188.052 36.0391L187.581 36.9209C188.189 37.2461 188.767 37.7657 189.31 38.504L190.115 37.912ZM188.06 36.0434C187.283 35.6097 186.371 35.404 185.345 35.404V36.404C186.238 36.404 186.974 36.5823 187.573 36.9166L188.06 36.0434ZM185.345 35.404C184.257 35.404 183.319 35.6639 182.573 36.224L183.173 37.024C183.706 36.6241 184.416 36.404 185.345 36.404V35.404ZM182.579 36.2192C181.804 36.7808 181.413 37.5739 181.413 38.544H182.413C182.413 37.8821 182.661 37.3952 183.166 37.0288L182.579 36.2192ZM181.413 38.544C181.413 39.5109 181.764 40.3202 182.479 40.9193L183.122 40.1527C182.653 39.7598 182.413 39.2411 182.413 38.544H181.413ZM182.486 40.9244C183.167 41.4771 184.258 41.9059 185.684 42.2463L185.917 41.2737C184.527 40.9421 183.618 40.5549 183.115 40.1476L182.486 40.9244ZM185.671 42.2428C187.291 42.6792 188.502 43.2683 189.339 43.9872L189.99 43.2288C189.003 42.3797 187.638 41.7368 185.931 41.2772L185.671 42.2428ZM189.342 43.9899C190.138 44.6622 190.557 45.6151 190.557 46.92H191.557C191.557 45.3769 191.047 44.1218 189.987 43.2261L189.342 43.9899ZM190.557 46.92C190.557 47.7105 190.357 48.3881 189.969 48.9706L190.801 49.5254C191.308 48.7639 191.557 47.8895 191.557 46.92H190.557ZM189.969 48.9706C189.58 49.5535 189.01 50.0251 188.234 50.3765L188.647 51.2875C189.567 50.8709 190.293 50.2865 190.801 49.5254L189.969 48.9706ZM188.238 50.3747C187.483 50.7088 186.579 50.884 185.513 50.884V51.884C186.687 51.884 187.734 51.6912 188.643 51.2893L188.238 50.3747ZM193.457 51H192.957V51.5H193.457V51ZM193.457 49.416V48.916H192.957V49.416H193.457ZM195.041 49.416V49.916H195.541V49.416H195.041ZM195.041 36.216H195.541V35.716H195.041V36.216ZM193.457 36.216H192.957V36.716H193.457V36.216ZM193.457 34.632V34.132H192.957V34.632H193.457ZM198.425 34.632H198.925V34.132H198.425V34.632ZM198.425 36.216V36.716H198.925V36.216H198.425ZM196.841 36.216V35.716H196.341V36.216H196.841ZM196.841 49.416H196.341V49.916H196.841V49.416ZM198.425 49.416H198.925V48.916H198.425V49.416ZM198.425 51V51.5H198.925V51H198.425ZM193.957 51V49.416H192.957V51H193.957ZM193.457 49.916H195.041V48.916H193.457V49.916ZM195.541 49.416V36.216H194.541V49.416H195.541ZM195.041 35.716H193.457V36.716H195.041V35.716ZM193.957 36.216V34.632H192.957V36.216H193.957ZM193.457 35.132H198.425V34.132H193.457V35.132ZM197.925 34.632V36.216H198.925V34.632H197.925ZM198.425 35.716H196.841V36.716H198.425V35.716ZM196.341 36.216V49.416H197.341V36.216H196.341ZM196.841 49.916H198.425V48.916H196.841V49.916ZM197.925 49.416V51H198.925V49.416H197.925ZM198.425 50.5H193.457V51.5H198.425V50.5ZM203.546 50.376L203.261 50.7869L203.269 50.792L203.546 50.376ZM201.242 47.448L200.78 47.6387L200.783 47.6457L201.242 47.448ZM201.242 38.256L200.781 38.0625L200.78 38.0653L201.242 38.256ZM203.546 35.304L203.826 35.718L203.828 35.717L203.546 35.304ZM210.386 35.136L210.119 35.5588L210.128 35.5641L210.386 35.136ZM212.762 37.632L213.052 38.0393L213.427 37.7724L213.192 37.3766L212.762 37.632ZM211.346 38.64L210.908 38.8818L211.179 39.3723L211.636 39.0473L211.346 38.64ZM203.594 37.752L203.182 37.4685L203.181 37.4697L203.594 37.752ZM203.618 47.928L203.206 48.2115L203.208 48.214L203.618 47.928ZM209.354 49.152L209.098 48.7223L209.094 48.7251L209.354 49.152ZM210.938 47.376L210.489 47.1561L210.938 47.376ZM211.514 44.496H212.014V43.996H211.514V44.496ZM207.65 44.496H207.15V44.996H207.65V44.496ZM207.65 43.008V42.508H207.15V43.008H207.65ZM213.29 43.008H213.79V42.508H213.29V43.008ZM212.498 48.288L212.942 48.5171L212.944 48.5143L212.498 48.288ZM210.29 50.616L210.531 51.0538L210.534 51.0524L210.29 50.616ZM207.122 50.884C205.831 50.884 204.738 50.57 203.823 49.96L203.269 50.792C204.369 51.526 205.661 51.884 207.122 51.884V50.884ZM203.831 49.9651C202.926 49.3376 202.213 48.4407 201.701 47.2503L200.783 47.6457C201.358 48.9833 202.182 50.0384 203.261 50.7869L203.831 49.9651ZM201.704 47.2573C201.207 46.0523 200.95 44.5923 200.95 42.864H199.95C199.95 44.6877 200.221 46.2837 200.78 47.6387L201.704 47.2573ZM200.95 42.864C200.95 41.119 201.207 39.6513 201.704 38.4467L200.78 38.0653C200.221 39.4207 199.95 41.025 199.95 42.864H200.95ZM201.703 38.4495C202.216 37.2272 202.928 36.3267 203.826 35.718L203.265 34.89C202.18 35.6253 201.356 36.6928 200.781 38.0625L201.703 38.4495ZM203.828 35.717C204.742 35.0927 205.833 34.772 207.122 34.772V33.772C205.659 33.772 204.365 34.1393 203.264 34.891L203.828 35.717ZM207.122 34.772C208.308 34.772 209.3 35.0414 210.119 35.5587L210.653 34.7133C209.648 34.0786 208.464 33.772 207.122 33.772V34.772ZM210.128 35.5641C210.973 36.0743 211.71 36.8412 212.332 37.8874L213.192 37.3766C212.501 36.2148 211.655 35.3177 210.644 34.7079L210.128 35.5641ZM212.472 37.2247L211.056 38.2327L211.636 39.0473L213.052 38.0393L212.472 37.2247ZM211.784 38.3982C210.704 36.4442 209.143 35.404 207.122 35.404V36.404C208.717 36.404 209.972 37.1878 210.908 38.8818L211.784 38.3982ZM207.122 35.404C205.454 35.404 204.124 36.1001 203.182 37.4685L204.006 38.0355C204.76 36.9399 205.781 36.404 207.122 36.404V35.404ZM203.181 37.4697C202.271 38.7998 201.846 40.6087 201.846 42.84H202.846C202.846 40.7193 203.253 39.1362 204.007 38.0343L203.181 37.4697ZM201.846 42.84C201.846 45.0583 202.28 46.8666 203.206 48.2115L204.03 47.6445C203.259 46.5254 202.846 44.9417 202.846 42.84H201.846ZM203.208 48.214C204.15 49.5647 205.471 50.252 207.122 50.252V49.252C205.797 49.252 204.782 48.7233 204.028 47.642L203.208 48.214ZM207.122 50.252C208.038 50.252 208.873 50.0307 209.614 49.5789L209.094 48.7251C208.522 49.0733 207.87 49.252 207.122 49.252V50.252ZM209.61 49.5816C210.375 49.1263 210.965 48.4566 211.387 47.5959L210.489 47.1561C210.142 47.8634 209.677 48.3777 209.098 48.7224L209.61 49.5816ZM211.387 47.5959C211.813 46.726 212.014 45.6861 212.014 44.496H211.014C211.014 45.5779 210.831 46.458 210.489 47.1561L211.387 47.5959ZM211.514 43.996H207.65V44.996H211.514V43.996ZM208.15 44.496V43.008H207.15V44.496H208.15ZM207.65 43.508H213.29V42.508H207.65V43.508ZM212.79 43.008V44.496H213.79V43.008H212.79ZM212.79 44.496C212.79 45.9264 212.536 47.1084 212.052 48.0617L212.944 48.5143C213.516 47.3876 213.79 46.0416 213.79 44.496H212.79ZM212.054 48.0589C211.567 49.0016 210.898 49.7027 210.046 50.1796L210.534 51.0524C211.569 50.4733 212.372 49.6224 212.942 48.5171L212.054 48.0589ZM210.048 50.1782C209.203 50.6448 208.232 50.884 207.122 50.884V51.884C208.38 51.884 209.521 51.6112 210.531 51.0538L210.048 50.1782ZM216.229 51H215.729V51.5H216.229V51ZM216.229 34.632V34.132H215.729V34.632H216.229ZM218.149 34.632L218.575 34.3717L218.429 34.132H218.149V34.632ZM226.477 48.288L226.05 48.5483L226.977 50.0682V48.288H226.477ZM226.477 34.632V34.132H225.977V34.632H226.477ZM228.277 34.632H228.777V34.132H228.277V34.632ZM228.277 51V51.5H228.777V51H228.277ZM226.357 51L225.93 51.261L226.076 51.5H226.357V51ZM218.029 37.392L218.455 37.131L217.529 35.6171V37.392H218.029ZM218.029 51V51.5H218.529V51H218.029ZM216.729 51V34.632H215.729V51H216.729ZM216.229 35.132H218.149V34.132H216.229V35.132ZM217.722 34.8923L226.05 48.5483L226.903 48.0277L218.575 34.3717L217.722 34.8923ZM226.977 48.288V34.632H225.977V48.288H226.977ZM226.477 35.132H228.277V34.132H226.477V35.132ZM227.777 34.632V51H228.777V34.632H227.777ZM228.277 50.5H226.357V51.5H228.277V50.5ZM226.783 50.739L218.455 37.131L217.602 37.653L225.93 51.261L226.783 50.739ZM217.529 37.392V51H218.529V37.392H217.529ZM218.029 50.5H216.229V51.5H218.029V50.5ZM241.668 51H241.168V51.5H241.668V51ZM241.668 49.416V48.916H241.168V49.416H241.668ZM243.252 49.416V49.916H243.752V49.416H243.252ZM243.252 36.216H243.752V35.716H243.252V36.216ZM241.668 36.216H241.168V36.716H241.668V36.216ZM241.668 34.632V34.132H241.168V34.632H241.668ZM246.636 34.632H247.136V34.132H246.636V34.632ZM246.636 36.216V36.716H247.136V36.216H246.636ZM245.052 36.216V35.716H244.552V36.216H245.052ZM245.052 49.416H244.552V49.916H245.052V49.416ZM246.636 49.416H247.136V48.916H246.636V49.416ZM246.636 51V51.5H247.136V51H246.636ZM242.168 51V49.416H241.168V51H242.168ZM241.668 49.916H243.252V48.916H241.668V49.916ZM243.752 49.416V36.216H242.752V49.416H243.752ZM243.252 35.716H241.668V36.716H243.252V35.716ZM242.168 36.216V34.632H241.168V36.216H242.168ZM241.668 35.132H246.636V34.132H241.668V35.132ZM246.136 34.632V36.216H247.136V34.632H246.136ZM246.636 35.716H245.052V36.716H246.636V35.716ZM244.552 36.216V49.416H245.552V36.216H244.552ZM245.052 49.916H246.636V48.916H245.052V49.916ZM246.136 49.416V51H247.136V49.416H246.136ZM246.636 50.5H241.668V51.5H246.636V50.5ZM249.885 51H249.385V51.5H249.885V51ZM249.885 34.632V34.132H249.385V34.632H249.885ZM251.805 34.632L252.232 34.3717L252.086 34.132H251.805V34.632ZM260.133 48.288L259.706 48.5483L260.633 50.0682V48.288H260.133ZM260.133 34.632V34.132H259.633V34.632H260.133ZM261.933 34.632H262.433V34.132H261.933V34.632ZM261.933 51V51.5H262.433V51H261.933ZM260.013 51L259.586 51.261L259.733 51.5H260.013V51ZM251.685 37.392L252.111 37.131L251.185 35.6171V37.392H251.685ZM251.685 51V51.5H252.185V51H251.685ZM250.385 51V34.632H249.385V51H250.385ZM249.885 35.132H251.805V34.132H249.885V35.132ZM251.378 34.8923L259.706 48.5483L260.56 48.0277L252.232 34.3717L251.378 34.8923ZM260.633 48.288V34.632H259.633V48.288H260.633ZM260.133 35.132H261.933V34.132H260.133V35.132ZM261.433 34.632V51H262.433V34.632H261.433ZM261.933 50.5H260.013V51.5H261.933V50.5ZM260.439 50.739L252.111 37.131L251.258 37.653L259.586 51.261L260.439 50.739ZM251.185 37.392V51H252.185V37.392H251.185ZM251.685 50.5H249.885V51.5H251.685V50.5Z" fill="#852F31"/>
</svg>
