<svg width="285" height="847" viewBox="0 0 285 847" fill="none" xmlns="http://www.w3.org/2000/svg">
<path d="M6.95341 97.059C17.8747 86.8779 35.6966 91.8198 39.8152 106.171L159.437 523.009C163.711 537.9 150.16 551.787 135.168 547.879L-307.743 432.42C-323.003 428.441 -327.871 409.191 -316.336 398.437L6.95341 97.059Z" fill="#45464F"/>
<path d="M-7.53496 173.602C3.08237 164.352 19.6794 168.678 24.43 181.934L130.293 477.325C135.716 492.457 121.975 507.48 106.42 503.425L-236.038 414.154C-251.593 410.099 -256.251 390.28 -244.13 379.721L-7.53496 173.602Z" fill="url(#paint0_linear)"/>
<path d="M102.643 631.562C113.565 621.381 131.387 626.323 135.505 640.674L175.882 781.373C180.156 796.264 166.605 810.151 151.613 806.243L2.11351 767.271C-13.1468 763.293 -18.0145 744.042 -6.47918 733.288L102.643 631.562Z" fill="#45464F"/>
<path d="M97.4762 662.522C108.094 653.273 124.691 657.599 129.441 670.855L161.66 760.757C167.083 775.889 153.343 790.912 137.788 786.857L33.5613 759.688C18.0063 755.633 13.3483 735.814 25.4688 725.254L97.4762 662.522Z" fill="url(#paint1_linear)"/>
<path d="M101.204 548.635C115.53 552.842 120.363 570.694 110.115 581.552L60.0191 634.634C49.3855 645.902 30.5313 641.322 26.2518 626.432L4.97286 552.392C0.616783 537.236 14.6978 523.235 29.8293 527.678L101.204 548.635Z" fill="#45464F"/>
<path d="M84.5255 555.686C97.8953 560.105 102.633 576.59 93.6501 587.434L68.3002 618.035C58.0455 630.414 38.1166 626.251 33.6764 610.801L21.2967 567.727C16.8565 552.278 31.5334 538.168 46.7959 543.213L84.5255 555.686Z" fill="url(#paint2_linear)"/>
<defs>
<linearGradient id="paint0_linear" x1="14.5488" y1="154.362" x2="-91.2614" y2="560.265" gradientUnits="userSpaceOnUse">
<stop offset="0.333333" stop-color="#303038"/>
<stop offset="0.807292" stop-color="#0F0F13" stop-opacity="0"/>
</linearGradient>
<linearGradient id="paint1_linear" x1="119.56" y1="643.283" x2="74.3794" y2="816.602" gradientUnits="userSpaceOnUse">
<stop offset="0.333333" stop-color="#303038"/>
<stop offset="0.807292" stop-color="#0F0F13" stop-opacity="0"/>
</linearGradient>
<linearGradient id="paint2_linear" x1="112.334" y1="564.878" x2="-0.796059" y2="597.393" gradientUnits="userSpaceOnUse">
<stop offset="0.333333" stop-color="#303038"/>
<stop offset="0.807292" stop-color="#0F0F13" stop-opacity="0"/>
</linearGradient>
</defs>
</svg>
