<svg width="485" height="838" viewBox="0 0 485 838" fill="none" xmlns="http://www.w3.org/2000/svg">
<path d="M721.944 285.497C736.873 285.264 746.784 300.879 740.218 314.289L549.526 703.775C542.713 717.689 523.349 718.908 514.845 705.958L263.613 323.356C254.957 310.174 264.251 292.627 280.02 292.381L721.944 285.497Z" fill="#45464F"/>
<path d="M659.879 332.578C673.958 332.833 683.372 347.17 678.011 360.19L558.527 650.339C552.406 665.202 532.139 667.138 523.316 653.701L329.063 357.875C320.24 344.438 330.071 326.61 346.143 326.901L659.879 332.578Z" fill="url(#paint0_linear)"/>
<path d="M301.95 406.378C309.759 419.104 301.377 435.59 286.493 436.776L213.736 442.578C198.292 443.809 187.373 427.771 194.18 413.854L228.028 344.652C234.957 330.485 254.791 329.537 263.04 342.978L301.95 406.378Z" fill="#45464F"/>
<path d="M284.847 400.428C291.805 412.671 284.269 428.078 270.334 430.102L231.009 435.813C215.101 438.124 203.105 421.674 210.168 407.233L229.86 366.973C236.922 352.533 257.272 351.903 265.214 365.879L284.847 400.428Z" fill="url(#paint1_linear)"/>
<path d="M223.431 262.521C238.36 262.288 248.27 277.903 241.705 291.313L180.183 416.97C173.37 430.885 154.006 432.104 145.502 419.154L64.4488 295.717C55.7927 282.535 65.0868 264.988 80.8552 264.742L223.431 262.521Z" fill="#45464F"/>
<path d="M202.4 275.776C216.479 276.031 225.894 290.368 220.532 303.388L186.039 387.15C179.918 402.014 159.651 403.949 150.827 390.513L94.7491 305.112C85.9259 291.675 95.7567 273.846 111.829 274.137L202.4 275.776Z" fill="url(#paint2_linear)"/>
<defs>
<linearGradient id="paint0_linear" x1="689.163" y1="333.108" x2="338.532" y2="563.348" gradientUnits="userSpaceOnUse">
<stop offset="0.333333" stop-color="#303038"/>
<stop offset="0.807292" stop-color="#0F0F13" stop-opacity="0"/>
</linearGradient>
<linearGradient id="paint1_linear" x1="299.318" y1="425.892" x2="193.579" y2="374.174" gradientUnits="userSpaceOnUse">
<stop offset="0.333333" stop-color="#303038"/>
<stop offset="0.807292" stop-color="#0F0F13" stop-opacity="0"/>
</linearGradient>
<linearGradient id="paint2_linear" x1="231.684" y1="276.306" x2="86.4895" y2="371.647" gradientUnits="userSpaceOnUse">
<stop offset="0.333333" stop-color="#303038"/>
<stop offset="0.807292" stop-color="#0F0F13" stop-opacity="0"/>
</linearGradient>
</defs>
</svg>
