<svg width="302" height="434" viewBox="0 0 302 434" fill="none" xmlns="http://www.w3.org/2000/svg">
<path d="M341.415 333.613C347.977 347.024 338.062 362.636 323.133 362.4L250.154 361.245C234.663 360.999 225.321 343.994 233.423 330.788L273.709 265.125C281.956 251.683 301.79 252.628 308.721 266.794L341.415 333.613Z" fill="#45464F"/>
<path d="M324.957 326.06C330.717 338.91 321.748 353.529 307.683 354.216L267.993 356.156C251.937 356.94 241.563 339.423 249.969 325.721L273.406 287.52C281.813 273.818 302.129 275.129 308.704 289.798L324.957 326.06Z" fill="url(#paint0_linear)"/>
<path d="M271.743 138.505C286.672 138.273 296.583 153.887 290.017 167.297L213.035 324.531C206.223 338.445 186.859 339.664 178.355 326.714L76.9338 172.259C68.2777 159.077 77.5719 141.53 93.3403 141.284L271.743 138.505Z" fill="#45464F"/>
<path d="M243.41 160.767C257.489 161.022 266.904 175.359 261.542 188.38L216.877 296.843C210.756 311.707 190.489 313.642 181.665 300.205L109.05 189.62C100.227 176.183 110.057 158.354 126.13 158.645L243.41 160.767Z" fill="url(#paint1_linear)"/>
<defs>
<linearGradient id="paint0_linear" x1="336.937" y1="352.787" x2="236.605" y2="291.231" gradientUnits="userSpaceOnUse">
<stop offset="0.333333" stop-color="#303038"/>
<stop offset="0.807292" stop-color="#0F0F13" stop-opacity="0"/>
</linearGradient>
<linearGradient id="paint1_linear" x1="272.694" y1="161.297" x2="102.912" y2="272.784" gradientUnits="userSpaceOnUse">
<stop offset="0.333333" stop-color="#303038"/>
<stop offset="0.807292" stop-color="#0F0F13" stop-opacity="0"/>
</linearGradient>
</defs>
</svg>
